<svg width="112" height="35" viewBox="0 0 112 35" fill="none" xmlns="http://www.w3.org/2000/svg">
<g clip-path="url(#clip0)">
<path d="M59.0256 8.79379C59.0256 10.0551 58.0109 11.0711 56.7513 11.0711C55.4917 11.0711 54.477 10.0551 54.477 8.79379C54.477 7.53253 55.4567 6.51652 56.7513 6.51652C58.0459 6.55155 59.0256 7.56757 59.0256 8.79379ZM49.6485 13.3834C49.6485 13.5936 49.6485 13.9439 49.6485 13.9439C49.6485 13.9439 48.5638 12.5425 46.2546 12.5425C42.4407 12.5425 39.4667 15.4504 39.4667 19.4795C39.4667 23.4735 42.4058 26.4164 46.2546 26.4164C48.5988 26.4164 49.6485 24.98 49.6485 24.98V25.5756C49.6485 25.8559 49.8584 26.0661 50.1383 26.0661H52.9725V12.8929C52.9725 12.8929 50.3833 12.8929 50.1383 12.8929C49.8584 12.8929 49.6485 13.1381 49.6485 13.3834ZM49.6485 21.8268C49.1237 22.5976 48.074 23.2633 46.8144 23.2633C44.5751 23.2633 42.8606 21.8619 42.8606 19.4795C42.8606 17.0971 44.5751 15.6957 46.8144 15.6957C48.039 15.6957 49.1586 16.3964 49.6485 17.1321V21.8268ZM55.0718 12.8929H58.4307V26.0661H55.0718V12.8929ZM105.246 12.5425C102.937 12.5425 101.852 13.9439 101.852 13.9439V6.55155H98.4932V26.0661C98.4932 26.0661 101.082 26.0661 101.327 26.0661C101.607 26.0661 101.817 25.8208 101.817 25.5756V24.98C101.817 24.98 102.902 26.4164 105.211 26.4164C109.025 26.4164 111.999 23.4735 111.999 19.4795C111.999 15.4855 109.025 12.5425 105.246 12.5425ZM104.686 23.2282C103.392 23.2282 102.377 22.5626 101.852 21.7918V17.0971C102.377 16.3964 103.497 15.6607 104.686 15.6607C106.926 15.6607 108.64 17.0621 108.64 19.4444C108.64 21.8268 106.926 23.2282 104.686 23.2282ZM96.7438 18.2533V26.1011H93.3848V18.6386C93.3848 16.4665 92.685 15.5906 90.7956 15.5906C89.7809 15.5906 88.7313 16.1161 88.0665 16.8869V26.0661H84.7075V12.8929H87.3667C87.6466 12.8929 87.8566 13.1381 87.8566 13.3834V13.9439C88.8362 12.9279 90.1308 12.5425 91.4254 12.5425C92.895 12.5425 94.1196 12.963 95.0993 13.8038C96.2889 14.7848 96.7438 16.046 96.7438 18.2533ZM76.5551 12.5425C74.2458 12.5425 73.1611 13.9439 73.1611 13.9439V6.55155H69.8022V26.0661C69.8022 26.0661 72.3914 26.0661 72.6363 26.0661C72.9162 26.0661 73.1262 25.8208 73.1262 25.5756V24.98C73.1262 24.98 74.2108 26.4164 76.5201 26.4164C80.3339 26.4164 83.308 23.4735 83.308 19.4795C83.343 15.4855 80.3689 12.5425 76.5551 12.5425ZM75.9953 23.2282C74.7007 23.2282 73.686 22.5626 73.1611 21.7918V17.0971C73.686 16.3964 74.8056 15.6607 75.9953 15.6607C78.2346 15.6607 79.949 17.0621 79.949 19.4444C79.949 21.8268 78.2346 23.2282 75.9953 23.2282ZM66.8981 12.5425C67.9128 12.5425 68.4376 12.7177 68.4376 12.7177V15.8358C68.4376 15.8358 65.6385 14.8899 63.889 16.8869V26.1011H60.5301V12.8929C60.5301 12.8929 63.1193 12.8929 63.3642 12.8929C63.6441 12.8929 63.8541 13.1381 63.8541 13.3834V13.9439C64.4839 13.2082 65.8484 12.5425 66.8981 12.5425ZM32.014 24.8749C31.8391 24.4545 31.6641 23.999 31.4892 23.6136C31.2093 22.983 30.9293 22.3874 30.6844 21.8268L30.6494 21.7918C28.2352 16.5365 25.646 11.2112 22.9168 5.95596L22.8119 5.74575C22.532 5.22022 22.2521 4.65966 21.9721 4.0991C21.6223 3.46847 21.2724 2.8028 20.7125 2.17217C19.5929 0.770771 17.9834 0 16.2689 0C14.5195 0 12.945 0.770771 11.7903 2.1021C11.2655 2.73273 10.8806 3.3984 10.5307 4.02903C10.2508 4.58959 9.97089 5.15015 9.69098 5.67568L9.58601 5.88589C6.89186 11.1411 4.26768 16.4665 1.85343 21.7217L1.81844 21.7918C1.57352 22.3524 1.2936 22.9479 1.01369 23.5786C0.838747 23.964 0.663802 24.3844 0.488856 24.8398C0.0339986 26.1361 -0.105958 27.3624 0.0689876 28.6236C0.453867 31.2513 2.20332 33.4585 4.61757 34.4394C5.52728 34.8248 6.47199 35 7.45168 35C7.73159 35 8.08148 34.965 8.3614 34.9299C9.51603 34.7898 10.7057 34.4044 11.8603 33.7387C13.2949 32.9329 14.6594 31.7768 16.1989 30.0951C17.7385 31.7768 19.138 32.9329 20.5376 33.7387C21.6922 34.4044 22.8819 34.7898 24.0365 34.9299C24.3164 34.965 24.6663 35 24.9462 35C25.9259 35 26.9056 34.8248 27.7803 34.4394C30.2296 33.4585 31.944 31.2162 32.3289 28.6236C32.6088 27.3974 32.4689 26.1712 32.014 24.8749ZM16.2339 26.6967C14.3445 24.3143 13.1199 22.0721 12.7 20.1802C12.5251 19.3744 12.4901 18.6737 12.5951 18.043C12.6651 17.4825 12.875 16.992 13.1549 16.5716C13.8197 15.6256 14.9393 15.03 16.2339 15.03C17.5285 15.03 18.6832 15.5906 19.313 16.5716C19.5929 16.992 19.8028 17.4825 19.8728 18.043C19.9778 18.6737 19.9428 19.4094 19.7678 20.1802C19.348 22.037 18.1233 24.2793 16.2339 26.6967ZM30.1946 28.3433C29.9496 30.1652 28.725 31.7417 27.0106 32.4424C26.1708 32.7928 25.2611 32.8979 24.3514 32.7928C23.4767 32.6877 22.6019 32.4074 21.6922 31.8819C20.4326 31.1812 19.173 30.0951 17.7035 28.4835C20.0128 25.6456 21.4123 23.0531 21.9372 20.7407C22.1821 19.6547 22.2171 18.6737 22.1121 17.7628C21.9721 16.8869 21.6572 16.0811 21.1674 15.3804C20.0827 13.8038 18.2633 12.8929 16.2339 12.8929C14.2046 12.8929 12.3851 13.8388 11.3005 15.3804C10.8106 16.0811 10.4957 16.8869 10.3558 17.7628C10.2158 18.6737 10.2508 19.6897 10.5307 20.7407C11.0556 23.0531 12.4901 25.6807 14.7644 28.5185C13.3298 30.1301 12.0352 31.2162 10.7756 31.9169C9.86593 32.4424 8.9912 32.7227 8.11647 32.8278C7.17177 32.9329 6.26205 32.7928 5.4573 32.4775C3.74284 31.7768 2.51822 30.2002 2.2733 28.3784C2.16833 27.5025 2.23831 26.6266 2.5882 25.6456C2.69317 25.2953 2.86811 24.9449 3.04306 24.5245C3.28798 23.964 3.56789 23.3684 3.84781 22.7728L3.8828 22.7027C6.29704 17.4825 8.88623 12.1572 11.5804 6.97197L11.6854 6.76176C11.9653 6.23624 12.2452 5.67568 12.5251 5.15015C12.805 4.58959 13.1199 4.06406 13.5048 3.60861C14.2396 2.76777 15.2193 2.31231 16.3039 2.31231C17.3886 2.31231 18.3683 2.76777 19.103 3.60861C19.4879 4.06406 19.8028 4.58959 20.0827 5.15015C20.3626 5.67568 20.6426 6.23624 20.9225 6.76176L21.0274 6.97197C23.6866 12.1922 26.2758 17.5175 28.69 22.7377V22.7728C28.97 23.3333 29.2149 23.964 29.4948 24.5245C29.6697 24.9449 29.8447 25.2953 29.9496 25.6456C30.2296 26.5566 30.3345 27.4324 30.1946 28.3433Z" fill="#1B2733"/>
</g>
<defs>
<clipPath id="clip0">
<rect width="112" height="35" fill="white"/>
</clipPath>
</defs>
</svg>
