<svg width="160" height="51" viewBox="0 0 160 51" fill="none" xmlns="http://www.w3.org/2000/svg">
<g clip-path="url(#clip0)">
<path d="M147.949 0.00016575H12.0582C11.5944 0.00016575 11.1363 0.00016575 10.6737 0.00271575C10.2866 0.00526575 9.90246 0.0126735 9.51156 0.0189082C8.66236 0.028983 7.81515 0.104303 6.9773 0.244213C6.14062 0.38717 5.33016 0.656683 4.57332 1.04364C3.8174 1.43387 3.12669 1.94093 2.52626 2.54643C1.92268 3.15023 1.41954 3.84814 1.03621 4.61332C0.65181 5.37698 0.385269 6.19531 0.245788 7.04005C0.104981 7.88373 0.0292118 8.73713 0.0191597 9.5926C0.0074236 9.98352 0.00618422 10.3757 0 10.7667V40.2374C0.00618422 40.6333 0.0074236 41.0168 0.0191597 41.4128C0.0292148 42.2682 0.104984 43.1216 0.245788 43.9652C0.384884 44.8105 0.65144 45.6293 1.03621 46.3932C1.41937 47.1559 1.92257 47.851 2.52626 48.4514C3.12442 49.0596 3.81557 49.567 4.57332 49.9543C5.33015 50.3423 6.14053 50.6134 6.9773 50.7586C7.81529 50.8973 8.66241 50.9727 9.51156 50.984C9.90246 50.9926 10.2866 50.9976 10.6737 50.9976C11.1362 51.0002 11.5945 51.0002 12.0582 51.0002H147.949C148.403 51.0002 148.865 51.0002 149.32 50.9976C149.705 50.9976 150.1 50.9926 150.485 50.984C151.333 50.9733 152.178 50.8979 153.015 50.7586C153.854 50.6124 154.667 50.3413 155.428 49.9543C156.185 49.5668 156.876 49.0594 157.473 48.4514C158.075 47.8486 158.58 47.1541 158.968 46.3932C159.349 45.6287 159.613 44.81 159.75 43.9652C159.892 43.1215 159.97 42.2683 159.985 41.4128C159.99 41.0168 159.99 40.6333 159.99 40.2374C160 39.7742 160 39.3135 160 38.8428V12.1587C160 11.6918 160 11.2286 159.99 10.7667C159.99 10.3757 159.99 9.98352 159.985 9.59255C159.97 8.737 159.892 7.88379 159.75 7.04C159.613 6.19575 159.349 5.37748 158.968 4.61327C158.187 3.07954 156.949 1.8311 155.428 1.04352C154.667 0.657514 153.854 0.388072 153.015 0.244099C152.179 0.103572 151.333 0.0282256 150.485 0.0187297C150.1 0.0125077 149.705 0.00503625 149.32 0.00255C148.865 0 148.403 0 147.949 0V0.00016575Z" fill="black"/>
<path d="M10.68 49.8845C10.2946 49.8845 9.91863 49.8795 9.53633 49.8708C8.74438 49.8604 7.95427 49.7909 7.17249 49.6629C6.44353 49.5363 5.73735 49.3009 5.07727 48.9643C4.42323 48.6305 3.8267 48.1929 3.31053 47.6681C2.78688 47.1496 2.35092 46.5481 2.01992 45.8876C1.68528 45.2228 1.45368 44.5102 1.33321 43.7747C1.2031 42.9843 1.13271 42.1852 1.12264 41.3841C1.11462 41.1152 1.10413 40.2198 1.10413 40.2198V10.7666C1.10413 10.7666 1.11531 9.88508 1.1227 9.62609C1.13235 8.82626 1.20233 8.02833 1.33204 7.2392C1.45274 6.50164 1.68452 5.787 2.01934 5.12003C2.34912 4.45998 2.78266 3.85807 3.30315 3.33764C3.82306 2.81227 4.4215 2.37237 5.07665 2.03399C5.73522 1.69852 6.44005 1.46473 7.16755 1.34047C7.95189 1.21114 8.74474 1.14122 9.53944 1.13129L10.6806 1.11572H149.313L150.468 1.13192C151.256 1.14135 152.041 1.21065 152.818 1.33922C153.553 1.46504 154.265 1.70046 154.932 2.03773C156.244 2.71966 157.312 3.79853 157.986 5.12314C158.315 5.78551 158.543 6.49432 158.663 7.22551C158.794 8.02111 158.867 8.82531 158.882 9.6317C158.886 9.99278 158.886 10.3806 158.886 10.7666C158.896 11.2448 158.896 11.6998 158.896 12.1587V38.8427C158.896 39.3059 158.896 39.7579 158.886 40.2136C158.886 40.6282 158.886 41.0081 158.881 41.399C158.866 42.191 158.794 42.9808 158.665 43.7622C158.547 44.503 158.317 45.2212 157.982 45.8914C157.649 46.5448 157.215 47.141 156.698 47.6582C156.181 48.1858 155.583 48.626 154.928 48.9619C154.264 49.301 153.553 49.5373 152.818 49.6629C152.037 49.7916 151.247 49.8611 150.455 49.8708C150.084 49.8795 149.696 49.8845 149.32 49.8845L147.949 49.887L10.68 49.8845Z" fill="white"/>
<path d="M31.6125 25.3589C31.6266 24.2522 31.9182 23.1672 32.4601 22.2047C33.0019 21.2421 33.7765 20.4334 34.7117 19.8538C34.1176 18.9984 33.3338 18.2945 32.4227 17.7979C31.5115 17.3012 30.4981 17.0257 29.4628 16.993C27.2544 16.7593 25.1134 18.3253 23.988 18.3253C22.8409 18.3253 21.1082 17.0162 19.2424 17.0549C18.0356 17.0942 16.8594 17.448 15.8285 18.0819C14.7976 18.7157 13.9471 19.608 13.36 20.6717C10.8166 25.1113 12.7137 31.6359 15.1501 35.2246C16.3691 36.9818 17.7938 38.9447 19.6579 38.8751C21.482 38.7988 22.1633 37.7024 24.3652 37.7024C26.5467 37.7024 27.1859 38.8751 29.0878 38.8308C31.0453 38.7988 32.2785 37.0658 33.4547 35.2919C34.3306 34.0398 35.0045 32.656 35.4517 31.1916C34.3145 30.7067 33.344 29.8951 32.6613 28.8578C31.9786 27.8206 31.6138 26.6037 31.6125 25.3589Z" fill="black"/>
<path d="M28.0201 14.633C29.0874 13.3413 29.6132 11.6811 29.4858 10.0049C27.8553 10.1775 26.3492 10.9632 25.2675 12.2053C24.7386 12.8121 24.3336 13.518 24.0755 14.2828C23.8174 15.0475 23.7113 15.856 23.7634 16.6621C24.5789 16.6705 25.3857 16.4923 26.1231 16.1408C26.8604 15.7894 27.509 15.2738 28.0201 14.633V14.633Z" fill="black"/>
<path d="M45.0494 18.7449V12.2124H42.6757V11.1372H48.5902V12.2124H46.2215V18.7449H45.0494Z" fill="black"/>
<path d="M54.0404 17.1945C53.8878 17.7193 53.5569 18.1731 53.1058 18.4768C52.6547 18.7804 52.1121 18.9145 51.5729 18.8555C51.1977 18.8655 50.8248 18.7931 50.4802 18.6432C50.1356 18.4934 49.8274 18.2697 49.5772 17.9877C49.3269 17.7058 49.1404 17.3723 49.0308 17.0104C48.9212 16.6486 48.8909 16.267 48.9423 15.8921C48.8923 15.5162 48.923 15.1337 49.0324 14.7708C49.1418 14.4078 49.3273 14.0728 49.5762 13.7884C49.8252 13.504 50.1319 13.2768 50.4755 13.1223C50.8191 12.9677 51.1917 12.8894 51.5679 12.8927C53.1525 12.8927 54.1084 13.9841 54.1084 15.7869V16.1822H50.0871V16.2457C50.0695 16.4564 50.0958 16.6685 50.1642 16.8683C50.2327 17.0682 50.3418 17.2514 50.4846 17.4063C50.6274 17.5611 50.8007 17.6842 50.9934 17.7676C51.1861 17.851 51.394 17.8928 51.6037 17.8905C51.8725 17.923 52.1449 17.8742 52.3862 17.7503C52.6274 17.6263 52.8266 17.4329 52.9585 17.1945L54.0404 17.1945ZM50.0871 15.3443H52.9635C52.9776 15.1516 52.9517 14.9581 52.8872 14.7761C52.8228 14.5941 52.7213 14.4278 52.5893 14.2877C52.4573 14.1476 52.2976 14.037 52.1207 13.9628C51.9437 13.8886 51.7533 13.8526 51.5617 13.857C51.3673 13.8545 51.1744 13.8913 50.9944 13.9652C50.8143 14.0391 50.6508 14.1486 50.5133 14.2872C50.3759 14.4258 50.2674 14.5907 50.1942 14.7723C50.121 14.9538 50.0846 15.1483 50.0871 15.3443ZM50.8923 12.0435L52.2052 10.23H53.523L52.0533 12.0435H50.8923Z" fill="black"/>
<path d="M55.6694 10.7622H56.7933V18.7447H55.6694V10.7622Z" fill="black"/>
<path d="M63.4538 17.1945C63.3011 17.7193 62.9702 18.1731 62.5192 18.4768C62.0681 18.7804 61.5254 18.9145 60.9862 18.8555C60.611 18.8655 60.2382 18.7931 59.8935 18.6432C59.5489 18.4934 59.2408 18.2697 58.9905 17.9877C58.7402 17.7058 58.5538 17.3723 58.4441 17.0104C58.3345 16.6486 58.3043 16.267 58.3556 15.8921C58.3056 15.5162 58.3364 15.1337 58.4458 14.7708C58.5551 14.4078 58.7406 14.0728 58.9896 13.7884C59.2385 13.504 59.5452 13.2768 59.8888 13.1223C60.2325 12.9677 60.605 12.8894 60.9813 12.8927C62.5658 12.8927 63.5217 13.9841 63.5217 15.7869V16.1822H59.5005V16.2457C59.4829 16.4564 59.5091 16.6685 59.5776 16.8683C59.646 17.0682 59.7551 17.2514 59.8979 17.4063C60.0407 17.5611 60.214 17.6842 60.4068 17.7676C60.5995 17.851 60.8074 17.8928 61.0171 17.8905C61.2859 17.923 61.5583 17.8742 61.7995 17.7503C62.0408 17.6263 62.24 17.4329 62.3719 17.1945L63.4538 17.1945ZM59.5004 15.3443H62.3768C62.391 15.1516 62.365 14.9581 62.3006 14.7761C62.2361 14.5941 62.1346 14.4278 62.0026 14.2877C61.8706 14.1476 61.711 14.037 61.534 13.9628C61.357 13.8886 61.1666 13.8526 60.975 13.857C60.7807 13.8545 60.5878 13.8913 60.4077 13.9652C60.2277 14.0391 60.0641 14.1486 59.9267 14.2872C59.7893 14.4258 59.6807 14.5907 59.6075 14.7723C59.5343 14.9538 59.4979 15.1483 59.5005 15.3443H59.5004ZM60.3057 12.0435L61.6185 10.23H62.9363L61.4666 12.0435H60.3057Z" fill="black"/>
<path d="M68.7595 14.88C68.6879 14.5823 68.5128 14.3203 68.2661 14.1415C68.0194 13.9626 67.7173 13.8788 67.4146 13.9051C66.4735 13.9051 65.898 14.6322 65.898 15.8556C65.898 17.1001 66.4785 17.8434 67.4146 17.8434C67.7144 17.8784 68.0165 17.8018 68.2642 17.628C68.5118 17.4542 68.688 17.1952 68.7595 16.8996H69.8525C69.7803 17.481 69.4856 18.0109 69.0313 18.3763C68.577 18.7417 67.9991 18.9137 67.4208 18.8557C67.04 18.8678 66.6612 18.7959 66.3109 18.645C65.9605 18.4941 65.6471 18.2679 65.3925 17.9822C65.138 17.6964 64.9484 17.358 64.8371 16.9907C64.7258 16.6234 64.6955 16.236 64.7482 15.8556C64.6981 15.478 64.7304 15.094 64.8428 14.7303C64.9552 14.3666 65.1449 14.032 65.3988 13.7499C65.6527 13.4678 65.9647 13.2449 66.3128 13.0969C66.661 12.9489 67.037 12.8792 67.4146 12.8929C67.9976 12.8387 68.5786 13.0161 69.0339 13.3872C69.4893 13.7583 69.783 14.2939 69.8525 14.8801L68.7595 14.88Z" fill="black"/>
<path d="M71.3444 10.7622H72.4584V13.9261H72.5473C72.6967 13.5954 72.9436 13.3193 73.2543 13.1352C73.5651 12.9512 73.9245 12.8682 74.2837 12.8976C74.5594 12.8825 74.8349 12.9289 75.0907 13.0335C75.3466 13.1381 75.5763 13.2983 75.7636 13.5027C75.951 13.7072 76.0912 13.9508 76.1744 14.2161C76.2576 14.4815 76.2817 14.7621 76.2449 15.0379V18.7447H75.1198V15.3175C75.1198 14.4004 74.6962 13.936 73.9021 13.936C73.7089 13.92 73.5146 13.9468 73.3328 14.0144C73.151 14.0821 72.986 14.189 72.8494 14.3276C72.7129 14.4662 72.608 14.6333 72.5421 14.8171C72.4763 15.0009 72.4511 15.1969 72.4682 15.3915V18.7446H71.3444L71.3444 10.7622Z" fill="black"/>
<path d="M77.6578 17.121C77.6578 16.0875 78.4211 15.4918 79.7759 15.4071L81.3184 15.3174V14.8219C81.3184 14.2155 80.9208 13.8731 80.1526 13.8731C79.5252 13.8731 79.0905 14.1053 78.9657 14.5112H77.8777C77.9925 13.5251 78.9126 12.8926 80.2045 12.8926C81.6322 12.8926 82.4374 13.6091 82.4374 14.8219V18.7446H81.3555V17.9378H81.2666C81.0861 18.2272 80.8327 18.4631 80.5321 18.6215C80.2316 18.7799 79.8948 18.855 79.5561 18.8392C79.317 18.8643 79.0754 18.8386 78.8468 18.7637C78.6182 18.6889 78.4077 18.5666 78.2288 18.4047C78.05 18.2428 77.9068 18.0449 77.8084 17.8238C77.7101 17.6027 77.6588 17.3633 77.6578 17.121V17.121ZM81.3184 16.6304V16.1504L79.9278 16.2401C79.1436 16.293 78.7879 16.5619 78.7879 17.0681C78.7879 17.5848 79.2325 17.8855 79.8439 17.8855C80.023 17.9038 80.204 17.8855 80.376 17.8319C80.548 17.7782 80.7075 17.6902 80.8451 17.5731C80.9826 17.456 81.0955 17.3122 81.1768 17.1503C81.2581 16.9883 81.3063 16.8115 81.3184 16.6304V16.6304Z" fill="black"/>
<path d="M84.1973 13.0036H85.2792V13.8839H85.3631C85.4842 13.5783 85.6983 13.3192 85.9746 13.144C86.2508 12.9687 86.5751 12.8862 86.9007 12.9083C87.0691 12.906 87.2372 12.9219 87.4022 12.9556V14.0738C87.1959 14.0294 86.9857 14.0064 86.7748 14.0053C86.5894 13.9885 86.4026 14.011 86.2264 14.0714C86.0502 14.1317 85.8884 14.2285 85.7515 14.3556C85.6146 14.4827 85.5056 14.6373 85.4315 14.8094C85.3573 14.9815 85.3198 15.1674 85.3211 15.355V18.7448H84.1973V13.0036Z" fill="black"/>
<path d="M88.436 19.3195H89.5858C89.6809 19.736 90.1563 20.005 90.9147 20.005C91.8508 20.005 92.4053 19.5567 92.4053 18.7978V17.6959H92.3213C92.1451 18.0044 91.8876 18.2577 91.5775 18.4279C91.2673 18.5981 90.9165 18.6785 90.5639 18.6603C89.1103 18.6603 88.2112 17.5272 88.2112 15.8083C88.2112 14.0577 89.1202 12.9084 90.575 12.9084C90.9365 12.8957 91.2945 12.9834 91.6098 13.162C91.9252 13.3405 92.1859 13.603 92.3633 13.9207H92.4522V13.0037H93.5292V18.7922C93.5292 20.1052 92.509 20.9382 90.8986 20.9382C89.4759 20.9382 88.5558 20.2951 88.436 19.3195ZM92.4263 15.8027C92.4263 14.659 91.8397 13.9263 90.8825 13.9263C89.9155 13.9263 89.3721 14.6591 89.3721 15.8027C89.3721 16.947 89.9155 17.6797 90.8825 17.6797C91.8459 17.6797 92.4263 16.9526 92.4263 15.8027L92.4263 15.8027Z" fill="black"/>
<path d="M100.135 17.1945C99.9827 17.7193 99.6518 18.1732 99.2007 18.4768C98.7496 18.7804 98.207 18.9145 97.6677 18.8555C97.2926 18.8655 96.9197 18.793 96.5751 18.6432C96.2305 18.4933 95.9224 18.2697 95.6721 17.9877C95.4218 17.7058 95.2354 17.3723 95.1258 17.0104C95.0161 16.6486 94.9859 16.267 95.0372 15.8922C94.9873 15.5162 95.018 15.1338 95.1274 14.7708C95.2368 14.4079 95.4222 14.0728 95.6712 13.7884C95.9202 13.504 96.2268 13.2768 96.5705 13.1223C96.9141 12.9677 97.2866 12.8894 97.6629 12.8927C99.2474 12.8927 100.203 13.9841 100.203 15.7869V16.1823H96.1821V16.2457C96.1645 16.4564 96.1907 16.6685 96.2592 16.8684C96.3276 17.0682 96.4367 17.2514 96.5795 17.4063C96.7223 17.5612 96.8956 17.6842 97.0884 17.7676C97.2811 17.851 97.489 17.8928 97.6987 17.8905C97.9675 17.923 98.2399 17.8742 98.4811 17.7503C98.7224 17.6264 98.9216 17.4329 99.0535 17.1945L100.135 17.1945ZM96.182 15.3443H99.0584C99.0726 15.1516 99.0466 14.9581 98.9822 14.7761C98.9177 14.5941 98.8162 14.4278 98.6842 14.2877C98.5522 14.1476 98.3926 14.037 98.2156 13.9628C98.0386 13.8886 97.8482 13.8526 97.6566 13.857C97.4623 13.8546 97.2694 13.8914 97.0893 13.9652C96.9093 14.0391 96.7457 14.1486 96.6083 14.2872C96.4709 14.4258 96.3623 14.5907 96.2891 14.7723C96.2159 14.9539 96.1795 15.1483 96.1821 15.3443H96.182Z" fill="black"/>
<path d="M101.712 13.0036H102.794V13.8839H102.878C102.999 13.5783 103.213 13.3193 103.49 13.144C103.766 12.9687 104.09 12.8862 104.416 12.9083C104.584 12.906 104.752 12.9219 104.917 12.9556V14.0738C104.711 14.0294 104.501 14.0064 104.29 14.0053C104.105 13.9885 103.918 14.011 103.742 14.0714C103.565 14.1317 103.404 14.2285 103.267 14.3557C103.13 14.4828 103.021 14.6373 102.947 14.8095C102.873 14.9816 102.835 15.1674 102.836 15.355V18.7449H101.712L101.712 13.0036Z" fill="black"/>
<path d="M108.967 15.8715C108.967 14.0574 109.892 12.9082 111.331 12.9082C111.687 12.8916 112.04 12.9776 112.349 13.1559C112.658 13.3343 112.911 13.5977 113.077 13.9154H113.161V10.7622H114.285V18.7447H113.208V17.8376H113.119C112.94 18.1531 112.679 18.4133 112.364 18.5898C112.048 18.7664 111.691 18.8527 111.331 18.8393C109.882 18.8393 108.967 17.69 108.967 15.8715ZM110.128 15.8715C110.128 17.0893 110.697 17.822 111.65 17.822C112.597 17.822 113.182 17.0787 113.182 15.8765C113.182 14.68 112.591 13.926 111.65 13.926C110.703 13.926 110.128 14.6638 110.128 15.8715H110.128Z" fill="black"/>
<path d="M115.804 17.121C115.804 16.0875 116.567 15.4918 117.922 15.4071L119.465 15.3174V14.8219C119.465 14.2155 119.067 13.8731 118.299 13.8731C117.671 13.8731 117.237 14.1053 117.112 14.5112H116.024C116.139 13.5251 117.059 12.8926 118.351 12.8926C119.778 12.8926 120.584 13.6091 120.584 14.8219V18.7446H119.502V17.9378H119.413C119.232 18.2272 118.979 18.4631 118.678 18.6215C118.378 18.7799 118.041 18.855 117.702 18.8392C117.463 18.8643 117.222 18.8386 116.993 18.7637C116.764 18.6889 116.554 18.5666 116.375 18.4047C116.196 18.2428 116.053 18.0449 115.955 17.8238C115.856 17.6027 115.805 17.3633 115.804 17.121V17.121ZM119.465 16.6304V16.1504L118.074 16.2401C117.29 16.293 116.934 16.5619 116.934 17.0681C116.934 17.5848 117.379 17.8855 117.99 17.8855C118.169 17.9038 118.35 17.8855 118.522 17.8319C118.694 17.7782 118.854 17.6902 118.991 17.5731C119.129 17.456 119.242 17.3122 119.323 17.1503C119.404 16.9883 119.453 16.8115 119.465 16.6304V16.6304Z" fill="black"/>
<path d="M122.344 13.0037H123.426V13.9157H123.51C123.652 13.5882 123.892 13.3136 124.197 13.1302C124.502 12.9468 124.855 12.8639 125.209 12.8929C125.486 12.8719 125.764 12.914 126.023 13.0161C126.282 13.1182 126.514 13.2777 126.704 13.4828C126.893 13.6879 127.034 13.9333 127.117 14.2008C127.199 14.4683 127.221 14.7511 127.18 15.0282V18.7449H126.056V15.3128C126.056 14.3901 125.658 13.9313 124.827 13.9313C124.639 13.9225 124.451 13.9547 124.277 14.0259C124.102 14.0971 123.945 14.2055 123.816 14.3437C123.687 14.4819 123.589 14.6466 123.528 14.8265C123.468 15.0065 123.448 15.1974 123.468 15.3862V18.7449H122.344V13.0037Z" fill="black"/>
<path d="M131 12.8926C132.281 12.8926 133.118 13.4933 133.228 14.5056H132.15C132.046 14.0842 131.637 13.8152 131 13.8152C130.372 13.8152 129.896 14.1153 129.896 14.5635C129.896 14.9065 130.184 15.1226 130.801 15.2651L131.747 15.4862C132.83 15.7395 133.338 16.2089 133.338 17.0525C133.338 18.1333 132.339 18.8554 130.979 18.8554C129.624 18.8554 128.741 18.2385 128.641 17.2212H129.766C129.863 17.4633 130.038 17.6656 130.263 17.7955C130.487 17.9255 130.749 17.9756 131.005 17.9378C131.705 17.9378 132.203 17.6216 132.203 17.1627C132.203 16.8203 131.936 16.5987 131.365 16.4617L130.373 16.2295C129.289 15.9711 128.788 15.4812 128.788 14.627C128.788 13.6091 129.713 12.8926 131 12.8926Z" fill="black"/>
<path d="M44.5067 23.0498H46.8582V38.8828H44.5067V23.0498Z" fill="black"/>
<path d="M49.6914 28.8433L50.9758 23.0498H53.2606L51.7045 28.8433H49.6914Z" fill="black"/>
<path d="M62.1466 34.6033H56.1605L54.7229 38.8828H52.1874L57.8574 23.0498H60.4917L66.1617 38.8828H63.583L62.1466 34.6033ZM56.7804 32.6285H61.5255L59.1863 25.6833H59.1209L56.7804 32.6285Z" fill="black"/>
<path d="M78.4058 33.1116C78.4058 36.6988 76.5013 39.0035 73.6274 39.0035C72.8994 39.0419 72.1754 38.8728 71.5383 38.5156C70.9012 38.1584 70.3767 37.6276 70.0249 36.9839H69.9705V42.7015H67.6202V27.3392H69.8952V29.2592H69.9384C70.3064 28.6185 70.8397 28.0905 71.4817 27.7311C72.1237 27.3717 72.8503 27.1946 73.5842 27.2184C76.4902 27.2184 78.4058 29.5344 78.4058 33.1116ZM75.99 33.1116C75.99 30.7745 74.7921 29.238 72.9642 29.238C71.1685 29.238 69.9606 30.8069 69.9606 33.1116C69.9606 35.4375 71.1685 36.9951 72.9642 36.9951C74.7921 36.9951 75.99 35.4698 75.99 33.1116Z" fill="black"/>
<path d="M91.0085 33.1116C91.0085 36.6988 89.1041 39.0035 86.2302 39.0035C85.5022 39.0419 84.7782 38.8728 84.141 38.5156C83.5039 38.1584 82.9794 37.6276 82.6276 36.9839H82.5733V42.7015H80.2224V27.3392H82.498V29.2592H82.5412C82.9091 28.6185 83.4425 28.0905 84.0845 27.7311C84.7265 27.3717 85.4531 27.1946 86.187 27.2184C89.093 27.2184 91.0085 29.5344 91.0085 33.1116ZM88.5928 33.1116C88.5928 30.7745 87.3948 29.238 85.567 29.238C83.7713 29.238 82.5634 30.8069 82.5634 33.1116C82.5634 35.4375 83.7713 36.9951 85.567 36.9951C87.3948 36.9951 88.5928 35.4698 88.5928 33.1116H88.5928Z" fill="black"/>
<path d="M99.3376 34.4711C99.5117 36.0412 101.025 37.0721 103.092 37.0721C105.073 37.0721 106.498 36.0411 106.498 34.6254C106.498 33.3965 105.639 32.6606 103.603 32.1564L101.568 31.6621C98.6842 30.9598 97.3454 29.6002 97.3454 27.3938C97.3454 24.662 99.7068 22.7856 103.06 22.7856C106.378 22.7856 108.653 24.662 108.73 27.3938H106.357C106.215 25.8138 104.92 24.86 103.026 24.86C101.133 24.86 99.8377 25.825 99.8377 27.2295C99.8377 28.3488 100.665 29.0075 102.689 29.5117L104.42 29.9401C107.642 30.7083 108.981 32.0132 108.981 34.3291C108.981 37.2912 106.64 39.1464 102.918 39.1464C99.435 39.1464 97.0836 37.3348 96.9316 34.471L99.3376 34.4711Z" fill="black"/>
<path d="M114.054 24.6074V27.3392H116.232V29.2156H114.054V35.5794C114.054 36.568 114.49 37.0287 115.447 37.0287C115.706 37.0242 115.964 37.0059 116.22 36.9739V38.8391C115.79 38.9201 115.353 38.9568 114.915 38.9486C112.597 38.9486 111.693 38.0708 111.693 35.8321V29.2156H110.028V27.3392H111.693V24.6074H114.054Z" fill="black"/>
<path d="M117.491 33.1116C117.491 29.4796 119.613 27.1973 122.922 27.1973C126.241 27.1973 128.353 29.4795 128.353 33.1116C128.353 36.7535 126.253 39.0259 122.922 39.0259C119.592 39.0259 117.491 36.7535 117.491 33.1116ZM125.959 33.1116C125.959 30.6201 124.826 29.1496 122.922 29.1496C121.017 29.1496 119.886 30.6313 119.886 33.1116C119.886 35.613 121.017 37.0723 122.922 37.0723C124.826 37.0723 125.959 35.613 125.959 33.1116V33.1116Z" fill="black"/>
<path d="M130.291 27.3391H132.533V29.3039H132.587C132.739 28.6902 133.095 28.1479 133.597 27.7681C134.098 27.3883 134.714 27.1942 135.341 27.2183C135.612 27.2174 135.882 27.247 136.146 27.3067V29.523C135.804 29.4177 135.448 29.3693 135.09 29.3798C134.749 29.3659 134.409 29.4266 134.093 29.5578C133.777 29.6889 133.492 29.8875 133.26 30.1398C133.027 30.3921 132.851 30.6922 132.745 31.0195C132.638 31.3467 132.603 31.6934 132.641 32.0357V38.8826H130.291L130.291 27.3391Z" fill="black"/>
<path d="M146.981 35.4922C146.665 37.5878 144.641 39.0259 142.051 39.0259C138.72 39.0259 136.653 36.7759 136.653 33.1664C136.653 29.5456 138.731 27.1973 141.952 27.1973C145.12 27.1973 147.112 29.3912 147.112 32.8912V33.703H139.025V33.8462C138.988 34.271 139.041 34.699 139.18 35.1017C139.319 35.5044 139.542 35.8726 139.833 36.1818C140.125 36.4911 140.478 36.7343 140.87 36.8953C141.261 37.0564 141.683 37.1315 142.105 37.1159C142.661 37.1683 143.218 37.0386 143.695 36.7461C144.171 36.4536 144.541 36.0138 144.75 35.4922L146.981 35.4922ZM139.036 32.047H144.761C144.782 31.665 144.724 31.2828 144.592 30.9242C144.46 30.5657 144.255 30.2386 143.991 29.9635C143.728 29.6884 143.41 29.4712 143.06 29.3256C142.709 29.18 142.332 29.109 141.952 29.1172C141.57 29.1149 141.19 29.1891 140.836 29.3354C140.482 29.4817 140.16 29.6972 139.889 29.9696C139.618 30.242 139.403 30.5658 139.256 30.9224C139.11 31.2789 139.035 31.6611 139.036 32.047V32.047Z" fill="black"/>
</g>
<defs>
<clipPath id="clip0">
<rect width="160" height="51" fill="white"/>
</clipPath>
</defs>
</svg>
