<svg fill="none" height="16" viewBox="0 0 16 16" width="16" xmlns="http://www.w3.org/2000/svg"><path clip-rule="evenodd" d="m8.54612 16h-7.663043c-.487853 0-.883077-.3955-.883077-.8831v-14.23383c0-.487787.395286-.88307.883077-.88307h14.233923c.4877 0 .883.395283.883.88307v14.23383c0 .4877-.3954.8831-.883.8831h-4.0772v-6.19608h2.0797l.3114-2.41472h-2.3911v-1.54165c0-.69912.1941-1.17555 1.1966-1.17555l1.2787-.00056v-2.15974c-.2211-.02943-.9802-.09518-1.8632-.09518-1.84362 0-3.10578 1.12532-3.10578 3.19188v1.7808h-2.08508v2.41472h2.08508z" fill="#8c97a1" fill-rule="evenodd"/></svg>