<svg width="81" height="29" viewBox="0 0 81 29" fill="none" xmlns="http://www.w3.org/2000/svg">
<path d="M23.8937 0C21.6871 0.00263562 19.3036 0.701773 17.7462 1.40232V1.39792C15.1387 2.55195 13.4385 3.74414 12.1703 5.05537C10.9517 6.31487 10.138 7.67348 9.28029 9.18319H4.56642C4.42981 9.18319 4.3064 9.25862 4.2443 9.37661L3.62728 10.5459C3.56993 10.655 3.57503 10.7846 3.64089 10.8888C3.70675 10.9931 3.82776 11.0559 3.95394 11.0559H8.41827L0.0340367 28.3277C-0.0299048 28.4591 -0.00183388 28.6183 0.102091 28.7233L0.269957 28.8903C0.352253 28.9735 0.470017 29.0136 0.587542 28.9958L4.00838 28.4815C4.12222 28.4644 4.22291 28.3959 4.27606 28.2969L13.5269 11.0559H19.4112C19.5432 11.0559 19.6644 10.9871 19.7288 10.8756L20.4003 9.70631C20.4629 9.59764 20.4607 9.46629 20.3958 9.35903C20.3308 9.25159 20.2112 9.18319 20.0827 9.18319H14.5023L16.2082 5.78071L16.2127 5.77631C16.602 4.96569 17.0332 4.1243 17.7462 3.4948C18.1032 3.17917 18.5285 2.9126 19.071 2.72111C19.6132 2.52979 20.2753 2.41356 21.0944 2.41339C21.683 2.41285 22.2693 2.54755 22.8548 2.69034C23.4402 2.83136 24.0204 2.98346 24.6196 2.98487C24.9323 2.98522 25.2187 2.9075 25.459 2.78705C25.8208 2.60523 26.0861 2.33321 26.2665 2.06171C26.3567 1.92526 26.4264 1.78969 26.4752 1.65728C26.5237 1.524 26.5515 1.39546 26.5524 1.26164C26.5527 1.1273 26.5224 0.996303 26.4662 0.879194C26.3667 0.672936 26.1981 0.524527 26.0125 0.413222C25.7315 0.24635 25.3963 0.150869 25.0325 0.0879197C24.6686 0.0260229 24.2785 0.000175076 23.8937 2.72174e-07V0ZM53.8556 7.36326C49.7175 7.36467 45.6269 8.62015 42.5496 10.4536C41.011 11.3715 39.7238 12.4371 38.8111 13.5748C37.9001 14.7114 37.3604 15.9285 37.3593 17.1531C37.359 17.6748 37.4811 18.209 37.754 18.7049C38.1631 19.4501 38.9075 20.1035 40.027 20.56C41.1478 21.0176 42.6468 21.285 44.6139 21.2853C49.6259 21.2859 53.7819 19.6626 57.5078 17.6015C57.6183 17.5403 57.6913 17.426 57.6938 17.3026C57.6965 17.1793 57.6294 17.0603 57.5214 16.9948L56.7365 16.5201C56.6296 16.4551 56.4955 16.448 56.3826 16.5025C53.2197 18.0296 49.9633 19.0752 46.7961 19.0741C45.5158 19.0754 44.4113 18.8844 43.6656 18.551C43.2922 18.3853 43.0092 18.1884 42.8308 17.9751C42.6528 17.7601 42.5695 17.5375 42.5677 17.2674C42.5684 16.6387 42.6521 16.0534 42.8989 15.4475C45.8937 15.2974 49.9535 14.9002 53.3338 14.0715C55.0671 13.6453 56.6198 13.1091 57.7709 12.4142C58.3462 12.0659 58.8264 11.6771 59.1683 11.2273C59.51 10.7793 59.7093 10.2593 59.7082 9.70191C59.7088 9.45451 59.6481 9.21888 59.5358 9.01175C59.338 8.64706 59.0032 8.37837 58.6057 8.16772C58.0069 7.85261 57.2423 7.65866 56.4144 7.5347C55.5867 7.41196 54.698 7.36343 53.8556 7.36326V7.36326ZM75.1474 7.36326C71.0095 7.36467 66.9237 8.62015 63.8459 10.4536C62.3071 11.3715 61.0203 12.4371 60.1075 13.5748C59.1963 14.7114 58.6522 15.9285 58.6511 17.1531C58.6508 17.6748 58.7729 18.209 59.0458 18.7049C59.4549 19.4501 60.1995 20.1035 61.3188 20.56C62.4396 21.0176 63.9386 21.285 65.9056 21.2853C70.9193 21.2859 75.0737 19.6625 78.7996 17.6015C78.9103 17.5403 78.9829 17.426 78.9856 17.3026C78.9881 17.1793 78.921 17.0604 78.8132 16.9948L78.0283 16.5201C77.9214 16.4552 77.7873 16.448 77.6744 16.5025C74.5096 18.0296 71.2532 19.0752 68.0879 19.0741C66.8076 19.0754 65.7031 18.8844 64.9574 18.551C64.5839 18.3853 64.3056 18.1884 64.1272 17.9751C63.9491 17.7601 63.8613 17.5375 63.8595 17.2674C63.8602 16.6393 63.9447 16.0541 64.1907 15.4475C67.1858 15.2975 71.2443 14.9006 74.6256 14.0715C76.3587 13.6453 77.9118 13.1091 79.0627 12.4142C79.6378 12.0659 80.1182 11.6771 80.4601 11.2273C80.8016 10.7793 81.0013 10.2591 81 9.70191C81.0006 9.45451 80.9399 9.21888 80.8276 9.01175C80.6298 8.64723 80.295 8.37837 79.8975 8.16772C79.2988 7.85261 78.5337 7.65866 77.7062 7.5347C76.8792 7.41196 75.9885 7.36343 75.1474 7.36326V7.36326ZM29.2291 7.69735C28.4815 7.69822 27.6654 7.8804 26.8291 8.15893C25.5757 8.5776 24.2763 9.21836 23.1542 9.85577C22.0319 10.4939 21.0903 11.1262 20.55 11.5262C20.4575 11.5946 20.4057 11.7037 20.4094 11.8164C20.413 11.9291 20.4714 12.0348 20.5682 12.0977L21.2986 12.5725C21.4186 12.6506 21.5763 12.6527 21.6978 12.5769C22.1365 12.3031 22.9226 11.8405 23.7758 11.4515C24.2021 11.257 24.6447 11.0801 25.0642 10.9548C25.4833 10.8289 25.8793 10.7564 26.203 10.7569C26.4965 10.7578 26.6716 10.8359 26.7747 10.9196C26.8788 11.0033 26.9084 11.1 26.9062 11.1306C26.907 11.1834 26.8925 11.2876 26.8563 11.4076C26.7505 11.7728 26.4818 12.2913 26.2847 12.6033L26.2801 12.612L21.8657 20.3226C21.8367 20.3665 21.8004 20.4198 21.7659 20.4896C21.7323 20.5591 21.6984 20.6498 21.6979 20.7666C21.6977 20.8428 21.7194 20.9134 21.7478 20.9688C21.8027 21.0734 21.8717 21.1346 21.9383 21.1842C22.0563 21.2682 22.1831 21.3214 22.3285 21.3732C22.5452 21.4491 22.7991 21.51 23.0635 21.5535C23.3277 21.5964 23.6023 21.6236 23.8529 21.6238C24.3614 21.6237 24.8416 21.6174 25.2276 21.5842C25.4216 21.5671 25.59 21.544 25.7403 21.5051C25.8159 21.4853 25.8885 21.4597 25.9626 21.4216C26.0346 21.3827 26.1192 21.3298 26.1849 21.2194L26.1894 21.215L27.1966 19.4258C28.1139 18.0091 29.5567 15.9625 31.2299 14.2825C32.0689 13.4394 32.963 12.6906 33.8704 12.1593C34.7784 11.6265 35.693 11.3145 36.5699 11.3152C37.2029 11.3138 37.9297 11.4237 38.6433 11.4251C39.1287 11.4254 39.5477 11.3254 39.9 11.157C40.4299 10.9045 40.7967 10.5104 41.0252 10.1151C41.1397 9.91679 41.2204 9.71844 41.2747 9.53047C41.3288 9.34232 41.3562 9.16402 41.3563 9.00295C41.3569 8.79792 41.3084 8.59536 41.2021 8.41828C41.123 8.28553 41.0132 8.16842 40.8845 8.0754C40.6905 7.93578 40.4553 7.8454 40.1858 7.78527C39.916 7.7253 39.6113 7.69752 39.2603 7.69735C38.2903 7.69911 37.2548 8.03074 36.2115 8.52819C34.6479 9.27656 33.0618 10.4137 31.7154 11.4999C31.119 11.9812 30.5804 12.4445 30.1048 12.867L31.2844 10.7394L31.2889 10.735C31.4611 10.4181 31.6043 10.1241 31.7108 9.85577C31.764 9.72143 31.811 9.59043 31.8424 9.46892C31.8734 9.34707 31.892 9.23154 31.8923 9.11285C31.894 8.85665 31.811 8.61259 31.6564 8.41829C31.5415 8.27199 31.3923 8.15418 31.2254 8.06221C30.9742 7.92436 30.6788 7.83802 30.3452 7.78087C30.0119 7.72425 29.6382 7.69752 29.2291 7.69735V7.69735ZM52.5671 8.96339C53.254 8.96216 53.7757 9.08015 54.087 9.24913C54.2436 9.33318 54.3461 9.42602 54.4091 9.51728C54.4719 9.60942 54.4989 9.70051 54.4998 9.81621C54.4992 10.1345 54.4127 10.4213 54.2457 10.7042C53.955 11.1978 53.3939 11.6662 52.6261 12.0713C51.4766 12.6812 49.8827 13.1517 48.1617 13.4737C46.6646 13.7548 45.0704 13.9293 43.5794 14.0056C43.8038 13.6854 44.1058 13.3199 44.4732 12.9417C45.3595 12.0267 46.6154 11.0219 48.0347 10.2558C49.4542 9.48809 51.0363 8.96216 52.5671 8.96339V8.96339ZM73.8589 8.96339C74.5458 8.96216 75.0684 9.08032 75.3787 9.24913C75.5348 9.333 75.6381 9.42585 75.7009 9.51728C75.7633 9.60942 75.7907 9.70033 75.7916 9.81621C75.791 10.1347 75.7047 10.4213 75.5375 10.7042C75.247 11.1978 74.6855 11.6662 73.9179 12.0713C72.7687 12.6812 71.1786 13.1517 69.4581 13.4737C67.9596 13.755 66.3634 13.9294 64.8712 14.0056C65.0956 13.6854 65.3976 13.3199 65.765 12.9417C66.6515 12.0267 67.9115 11.0219 69.331 10.2558C70.7509 9.48809 72.3274 8.96216 73.8589 8.96339V8.96339Z" fill="#1B2733"/>
</svg>
