<svg width="158" height="47" viewBox="0 0 158 47" fill="none" xmlns="http://www.w3.org/2000/svg">
<path d="M152.148 0H5.85185C2.61996 0 0 2.61996 0 5.85185V40.963C0 44.1949 2.61996 46.8148 5.85185 46.8148H152.148C155.38 46.8148 158 44.1949 158 40.963V5.85185C158 2.61996 155.38 0 152.148 0Z" fill="white"/>
<path d="M152.148 0.94C153.452 0.94 154.702 1.45994 155.624 2.38543C156.546 3.31092 157.064 4.56616 157.064 5.875V41.125C157.064 42.4338 156.546 43.6891 155.624 44.6146C154.702 45.5401 153.452 46.06 152.148 46.06H5.85185C4.54817 46.06 3.29787 45.5401 2.37603 44.6146C1.45418 43.6891 0.936296 42.4338 0.936296 41.125V5.875C0.936296 4.56616 1.45418 3.31092 2.37603 2.38543C3.29787 1.45994 4.54817 0.94 5.85185 0.94H152.148ZM152.148 0H5.85185C4.29984 0 2.8114 0.618971 1.71397 1.72075C0.616533 2.82252 0 4.31685 0 5.875V41.125C0 42.6831 0.616533 44.1775 1.71397 45.2793C2.8114 46.381 4.29984 47 5.85185 47H152.148C153.7 47 155.189 46.381 156.286 45.2793C157.383 44.1775 158 42.6831 158 41.125V5.875C158 4.31685 157.383 2.82252 156.286 1.72075C155.189 0.618971 153.7 0 152.148 0Z" fill="#A6A6A6"/>
<path d="M79.749 25.4553C78.7629 25.4576 77.7996 25.7523 76.981 26.3021C76.1624 26.8519 75.5252 27.632 75.15 28.5439C74.7747 29.4559 74.6784 30.4586 74.873 31.4252C75.0677 32.3919 75.5446 33.2792 76.2435 33.9748C76.9424 34.6705 77.8319 35.1432 78.7995 35.3333C79.7671 35.5234 80.7693 35.4224 81.6795 35.0429C82.5896 34.6634 83.3668 34.0225 83.9127 33.2013C84.4586 32.3801 84.7488 31.4155 84.7465 30.4294C84.756 29.7716 84.6331 29.1186 84.385 28.5092C84.137 27.8999 83.7688 27.3467 83.3025 26.8826C82.8362 26.4185 82.2813 26.053 81.6708 25.8078C81.0603 25.5625 80.4067 25.4427 79.749 25.4553V25.4553ZM79.749 33.449C79.1446 33.4912 78.5414 33.3507 78.018 33.0456C77.4945 32.7406 77.0749 32.2851 76.8137 31.7384C76.5525 31.1917 76.4619 30.5791 76.5535 29.9802C76.6451 29.3812 76.9148 28.8237 77.3274 28.3801C77.7401 27.9365 78.2767 27.6273 78.8674 27.4927C79.4582 27.3581 80.0757 27.4043 80.6398 27.6253C81.204 27.8463 81.6886 28.2319 82.0306 28.732C82.3727 29.2321 82.5564 29.8235 82.5579 30.4294C82.5767 30.8133 82.5185 31.1971 82.3867 31.5581C82.2548 31.9192 82.0521 32.2502 81.7903 32.5316C81.5285 32.813 81.213 33.0392 80.8624 33.1967C80.5118 33.3543 80.1332 33.44 79.749 33.449ZM68.8411 25.4553C67.855 25.4576 66.8918 25.7523 66.0732 26.3021C65.2545 26.8519 64.6173 27.632 64.2421 28.5439C63.8669 29.4559 63.7705 30.4586 63.9652 31.4252C64.1598 32.3919 64.6367 33.2792 65.3356 33.9748C66.0346 34.6705 66.9241 35.1432 67.8916 35.3333C68.8592 35.5234 69.8615 35.4224 70.7716 35.0429C71.6818 34.6634 72.4589 34.0225 73.0049 33.2013C73.5508 32.3801 73.8409 31.4155 73.8386 30.4294C73.8481 29.7716 73.7252 29.1186 73.4772 28.5092C73.2291 27.8999 72.861 27.3467 72.3947 26.8826C71.9284 26.4185 71.3735 26.053 70.763 25.8078C70.1525 25.5625 69.4989 25.4427 68.8411 25.4553V25.4553ZM68.8411 33.449C68.2367 33.4912 67.6336 33.3507 67.1101 33.0456C66.5866 32.7406 66.167 32.2851 65.9059 31.7384C65.6447 31.1917 65.554 30.5791 65.6456 29.9802C65.7373 29.3812 66.0069 28.8237 66.4196 28.3801C66.8323 27.9365 67.3688 27.6273 67.9596 27.4927C68.5503 27.3581 69.1679 27.4043 69.732 27.6253C70.2961 27.8463 70.7807 28.2319 71.1228 28.732C71.4648 29.2321 71.6485 29.8235 71.65 30.4294C71.6689 30.8133 71.6107 31.1971 71.4788 31.5581C71.347 31.9192 71.1442 32.2502 70.8824 32.5316C70.6206 32.813 70.3051 33.0392 69.9546 33.1967C69.604 33.3543 69.2254 33.44 68.8411 33.449ZM55.8734 26.9885V29.0952H60.9294C60.8501 30.0874 60.4377 31.0237 59.7591 31.7519C59.2519 32.2686 58.6419 32.6732 57.9685 32.9393C57.2951 33.2054 56.5734 33.3272 55.85 33.2968C54.3601 33.2968 52.9312 32.7049 51.8776 31.6514C50.8241 30.5979 50.2322 29.169 50.2322 27.679C50.2322 26.1891 50.8241 24.7602 51.8776 23.7067C52.9312 22.6531 54.3601 22.0613 55.85 22.0613C57.2784 22.04 58.6576 22.5824 59.6888 23.571L61.1752 22.0847C60.4776 21.3947 59.6494 20.851 58.739 20.4852C57.8286 20.1194 56.8544 19.939 55.8734 19.9546C54.833 19.9141 53.795 20.0841 52.8218 20.4543C51.8486 20.8245 50.9602 21.3874 50.2097 22.1092C49.4593 22.8311 48.8622 23.6969 48.4544 24.655C48.0466 25.6131 47.8364 26.6436 47.8364 27.6849C47.8364 28.7261 48.0466 29.7567 48.4544 30.7147C48.8622 31.6728 49.4593 32.5387 50.2097 33.2605C50.9602 33.9823 51.8486 34.5452 52.8218 34.9155C53.795 35.2857 54.833 35.4557 55.8734 35.4152C56.8746 35.4552 57.8729 35.2829 58.8027 34.9098C59.7326 34.5366 60.573 33.971 61.2688 33.25C62.4979 31.8999 63.1527 30.1241 63.0946 28.2993C63.0988 27.8601 63.0635 27.4214 62.9893 26.9885H55.8734ZM108.903 28.627C108.598 27.729 108.027 26.945 107.266 26.3786C106.505 25.8122 105.591 25.4902 104.643 25.4553C104.003 25.4541 103.369 25.5841 102.781 25.8375C102.193 26.0908 101.663 26.4621 101.225 26.9283C100.786 27.3945 100.447 27.9457 100.23 28.5479C100.013 29.1501 99.9213 29.7905 99.9613 30.4294C99.9513 31.4978 100.287 32.5407 100.919 33.4024C101.55 34.2642 102.444 34.8985 103.466 35.2105C104.487 35.5226 105.583 35.4957 106.588 35.1339C107.593 34.7721 108.455 34.0948 109.043 33.2032L107.346 32.0328C107.093 32.4545 106.735 32.8027 106.305 33.0429C105.876 33.2831 105.392 33.4069 104.9 33.4021C104.393 33.4231 103.891 33.2901 103.461 33.0206C103.031 32.7512 102.692 32.3579 102.489 31.8924L109.149 29.142L108.903 28.627ZM102.115 30.289C102.091 29.9254 102.14 29.5608 102.259 29.2164C102.378 28.8721 102.564 28.5549 102.808 28.2836C103.051 28.0122 103.345 27.792 103.675 27.6359C104.004 27.4799 104.361 27.3911 104.725 27.3747C105.102 27.3517 105.477 27.4405 105.804 27.6299C106.131 27.8194 106.395 28.1011 106.562 28.4398L102.115 30.289ZM96.7076 35.1109H98.8962V20.4813H96.7076V35.1109ZM93.1263 26.5672H93.0444C92.7174 26.1948 92.3139 25.8975 91.8615 25.6955C91.409 25.4935 90.9182 25.3916 90.4228 25.3968C89.1438 25.4588 87.9377 26.0106 87.0544 26.9377C86.1711 27.8648 85.6785 29.0962 85.6785 30.3767C85.6785 31.6572 86.1711 32.8886 87.0544 33.8158C87.9377 34.7429 89.1438 35.2946 90.4228 35.3567C90.919 35.3666 91.4112 35.2669 91.8644 35.0646C92.3176 34.8622 92.7205 34.5623 93.0444 34.1863H93.1263V34.9002C93.1263 36.8079 92.1081 37.8261 90.4696 37.8261C89.9222 37.8141 89.3908 37.6397 88.9428 37.325C88.4947 37.0104 88.1503 36.5697 87.9533 36.0589L86.0573 36.843C86.4078 37.7234 87.0173 38.4767 87.8051 39.0033C88.5929 39.53 89.522 39.8051 90.4696 39.7924C93.0327 39.7924 95.1511 38.2826 95.1511 34.6076V25.7479H93.1263V26.5672ZM90.61 33.449C89.8432 33.4011 89.1234 33.0628 88.5973 32.5029C88.0712 31.943 87.7784 31.2036 87.7784 30.4353C87.7784 29.6669 88.0712 28.9275 88.5973 28.3676C89.1234 27.8077 89.8432 27.4694 90.61 27.4215C90.9848 27.4377 91.3525 27.5291 91.6913 27.6903C92.03 27.8515 92.3329 28.0792 92.5819 28.3598C92.8308 28.6404 93.0208 28.9683 93.1405 29.3238C93.2601 29.6794 93.3071 30.0553 93.2785 30.4294C93.3104 30.8047 93.2659 31.1826 93.1476 31.5403C93.0293 31.8979 92.8397 32.2278 92.5902 32.5101C92.3408 32.7923 92.0367 33.0211 91.6963 33.1824C91.356 33.3438 90.9864 33.4345 90.61 33.449V33.449ZM119.155 20.4813H113.912V35.1109H116.101V29.5633H119.155C119.779 29.6081 120.405 29.524 120.995 29.3161C121.585 29.1082 122.126 28.781 122.583 28.3549C123.041 27.9288 123.406 27.4131 123.656 26.8397C123.905 26.2663 124.034 25.6476 124.034 25.0223C124.034 24.3969 123.905 23.7783 123.656 23.2049C123.406 22.6315 123.041 22.1157 122.583 21.6897C122.126 21.2636 121.585 20.9364 120.995 20.7285C120.405 20.5206 119.779 20.4364 119.155 20.4813V20.4813ZM119.155 27.5035H116.101V22.5177H119.202C119.531 22.5177 119.857 22.5825 120.161 22.7083C120.465 22.8342 120.741 23.0187 120.973 23.2513C121.206 23.4838 121.39 23.76 121.516 24.0638C121.642 24.3677 121.707 24.6934 121.707 25.0223C121.707 25.3512 121.642 25.6769 121.516 25.9808C121.39 26.2846 121.206 26.5607 120.973 26.7933C120.741 27.0259 120.465 27.2104 120.161 27.3362C119.857 27.4621 119.531 27.5269 119.202 27.5269L119.155 27.5035ZM132.661 25.4085C131.864 25.3594 131.07 25.5449 130.378 25.9422C129.685 26.3395 129.124 26.9311 128.764 27.6439L130.695 28.4515C130.89 28.0997 131.183 27.8119 131.538 27.6229C131.893 27.4339 132.296 27.3518 132.697 27.3864C132.974 27.354 133.256 27.3772 133.525 27.4547C133.793 27.5322 134.044 27.6625 134.262 27.8379C134.48 28.0133 134.661 28.2303 134.794 28.4763C134.927 28.7223 135.01 28.9924 135.037 29.2707V29.4112C134.333 29.0412 133.55 28.8484 132.755 28.8494C130.672 28.8494 128.542 30.0198 128.542 32.1498C128.562 32.6026 128.674 33.0466 128.869 33.4554C129.065 33.8643 129.341 34.2297 129.68 34.5299C130.02 34.8301 130.416 35.0591 130.846 35.2031C131.275 35.3471 131.73 35.4033 132.182 35.3684C132.731 35.3987 133.278 35.2825 133.768 35.0316C134.257 34.7807 134.671 34.4041 134.967 33.9405H135.037V35.1109H137.144V29.4814C137.144 26.9183 135.201 25.4319 132.708 25.4319L132.661 25.4085ZM132.392 33.4255C131.678 33.4255 130.684 33.0627 130.684 32.185C130.684 31.0146 131.924 30.6167 133.024 30.6167C133.719 30.5995 134.407 30.7693 135.014 31.1082C134.94 31.7438 134.639 32.3312 134.166 32.7616C133.692 33.192 133.079 33.4362 132.439 33.449L132.392 33.4255ZM144.822 25.7479L142.317 32.0913H142.247L139.649 25.7479H137.308L141.205 34.6193L138.981 39.5466H141.264L147.256 25.7479H144.822ZM125.159 35.1109H127.336V20.4813H125.159V35.1109Z" fill="black"/>
<path d="M12.2187 8.82509C11.833 9.28109 11.6362 9.86726 11.6686 10.4636V36.3522C11.6288 36.9495 11.8265 37.5384 12.2187 37.9907L12.3006 38.0844L26.8015 23.5835V23.2324L12.3006 8.74316L12.2187 8.82509Z" fill="url(#paint0_linear)"/>
<path d="M31.6 28.4168L26.8015 23.5832V23.2321L31.6 18.3984L31.7054 18.4687L37.4519 21.7223C39.0904 22.6469 39.0904 24.1684 37.4519 25.1047L31.7288 28.3583L31.6 28.4168Z" fill="url(#paint1_linear)"/>
<path d="M31.7404 28.3467L26.8014 23.4077L12.2186 37.9905C12.5493 38.2849 12.9727 38.4543 13.4152 38.4692C13.8577 38.4842 14.2914 38.3438 14.6413 38.0725L31.7404 28.3467" fill="url(#paint2_linear)"/>
<path d="M31.7404 18.4686L14.6413 8.75453C14.2937 8.47939 13.8603 8.3356 13.4172 8.34845C12.9741 8.36129 12.5497 8.52995 12.2186 8.82475L26.8014 23.4076L31.7404 18.4686Z" fill="url(#paint3_linear)"/>
<path opacity="0.2" d="M31.6 28.2412L14.6413 37.8968C14.3042 38.1512 13.8933 38.2888 13.4709 38.2888C13.0486 38.2888 12.6377 38.1512 12.3006 37.8968V37.8968L12.2186 37.9787L12.3006 38.0723C12.6377 38.3268 13.0486 38.4644 13.4709 38.4644C13.8933 38.4644 14.3042 38.3268 14.6413 38.0723L31.7404 28.3465L31.6 28.2412Z" fill="black"/>
<path opacity="0.12" d="M12.2187 37.8265C11.8428 37.3623 11.6585 36.7719 11.7037 36.1763V36.3518C11.6639 36.9492 11.8616 37.538 12.2538 37.9903L12.3357 37.9084L12.2187 37.8265Z" fill="black"/>
<path opacity="0.12" d="M37.4518 24.9292L31.6 28.2413L31.7053 28.3467L37.4518 25.093C37.791 24.9496 38.0853 24.7174 38.3036 24.4208C38.5219 24.1242 38.6563 23.7742 38.6924 23.4077C38.6192 23.7408 38.4689 24.052 38.2534 24.3162C38.0379 24.5805 37.7633 24.7905 37.4518 24.9292Z" fill="black"/>
<path opacity="0.25" d="M14.6413 8.91812L37.4518 21.8858C37.7633 22.0245 38.0379 22.2345 38.2534 22.4988C38.4689 22.7631 38.6193 23.0743 38.6924 23.4073C38.6563 23.0408 38.522 22.6908 38.3036 22.3942C38.0853 22.0976 37.791 21.8654 37.4518 21.722L14.6413 8.75427C13.0145 7.81797 11.6686 8.59042 11.6686 10.463V10.6386C11.7037 8.76597 13.0145 7.99353 14.6413 8.91812Z" fill="white"/>
<path d="M48.3129 15.2148V8.19257H50.4546C50.931 8.16955 51.407 8.2438 51.8538 8.41082C52.3005 8.57783 52.7085 8.83409 53.0529 9.16398C53.3755 9.50146 53.6276 9.89989 53.7944 10.336C53.9612 10.7721 54.0394 11.237 54.0243 11.7037C54.0394 12.1703 53.9612 12.6353 53.7944 13.0714C53.6276 13.5075 53.3755 13.9059 53.0529 14.2434C52.7085 14.5733 52.3005 14.8295 51.8538 14.9966C51.407 15.1636 50.931 15.2378 50.4546 15.2148H48.3129ZM49.2141 14.3487H50.4546C50.8101 14.3811 51.1683 14.3349 51.5039 14.2134C51.8395 14.0919 52.1443 13.8981 52.3967 13.6457C52.6491 13.3934 52.8429 13.0886 52.9644 12.753C53.0858 12.4173 53.132 12.0591 53.0997 11.7037C53.1299 11.3487 53.0823 10.9914 52.9601 10.6567C52.8379 10.3221 52.644 10.0182 52.3921 9.76624C52.1402 9.51432 51.8362 9.32047 51.5016 9.19824C51.1669 9.07602 50.8096 9.02838 50.4546 9.05865H49.2141V14.3487Z" fill="black" stroke="white" stroke-width="0.2" stroke-miterlimit="10"/>
<path d="M55.2882 15.2146V8.19238H56.1777V15.2146H55.2882Z" fill="black" stroke="white" stroke-width="0.2" stroke-miterlimit="10"/>
<path d="M59.7708 15.3666C59.2368 15.358 58.7182 15.1865 58.2844 14.8751C57.7997 14.5438 57.4572 14.0425 57.3247 13.4706L58.144 13.1312C58.2444 13.5122 58.4563 13.8545 58.7526 14.1143C59.0321 14.3666 59.3942 14.5081 59.7708 14.5122C60.1325 14.5244 60.4875 14.4129 60.7773 14.1962C60.9115 14.1041 61.0205 13.9798 61.0941 13.8346C61.1677 13.6894 61.2037 13.528 61.1986 13.3653C61.208 13.1903 61.1745 13.0157 61.1011 12.8566C61.0276 12.6976 60.9165 12.5588 60.7773 12.4524C60.3767 12.1816 59.9337 11.9799 59.4665 11.8555C58.9398 11.7203 58.4539 11.4592 58.0503 11.0948C57.894 10.9433 57.7708 10.7611 57.6882 10.5597C57.6056 10.3583 57.5655 10.142 57.5705 9.92439C57.5707 9.67426 57.624 9.42703 57.7269 9.19905C57.8298 8.97107 57.98 8.76752 58.1674 8.60187C58.5912 8.26426 59.1124 8.07178 59.6539 8.05282C60.1955 8.03385 60.7288 8.18941 61.1752 8.49654C61.5123 8.73696 61.7659 9.07653 61.9009 9.46795L61.0816 9.80735C61.0039 9.56447 60.8526 9.35178 60.6486 9.19876C60.3936 8.99522 60.0733 8.89125 59.7474 8.90617C59.4264 8.90094 59.1131 9.00402 58.8579 9.19876C58.7442 9.28228 58.652 9.39163 58.5889 9.5178C58.5259 9.64397 58.4937 9.78333 58.4951 9.92439C58.4935 10.0531 58.5237 10.1802 58.5828 10.2945C58.642 10.4088 58.7285 10.5068 58.8345 10.5798C59.1342 10.8015 59.4711 10.9679 59.8293 11.0714C60.124 11.1595 60.4132 11.265 60.6954 11.3874C60.9442 11.5015 61.1797 11.6428 61.3976 11.8087C61.6288 11.9741 61.8141 12.1956 61.936 12.4524C62.0676 12.7342 62.1317 13.0427 62.1232 13.3536C62.1285 13.6705 62.0562 13.9839 61.9126 14.2665C61.7838 14.5227 61.5901 14.7406 61.3508 14.8985C61.1221 15.0587 60.8692 15.1812 60.6017 15.2613C60.3314 15.337 60.0514 15.3725 59.7708 15.3666Z" fill="black" stroke="white" stroke-width="0.2" stroke-miterlimit="10"/>
<path d="M64.3703 15.2144H63.4691V8.19222H65.8099C66.3829 8.18238 66.9372 8.39653 67.3547 8.78911C67.5616 8.97878 67.7267 9.20938 67.8397 9.46626C67.9526 9.72314 68.011 10.0007 68.011 10.2813C68.011 10.562 67.9526 10.8395 67.8397 11.0964C67.7267 11.3533 67.5616 11.5839 67.3547 11.7736C66.9372 12.1661 66.3829 12.3803 65.8099 12.3704H64.3703V15.2144ZM64.3703 11.5044H65.8918C66.0601 11.5105 66.2277 11.4802 66.3833 11.4155C66.5388 11.3509 66.6785 11.2534 66.793 11.1298C66.9081 11.0205 66.9997 10.8889 67.0623 10.743C67.1249 10.5972 67.1572 10.4401 67.1572 10.2813C67.1572 10.1226 67.1249 9.9655 67.0623 9.81963C66.9997 9.67376 66.9081 9.54215 66.793 9.43281C66.6785 9.30922 66.5388 9.21178 66.3833 9.14714C66.2277 9.08251 66.0601 9.0522 65.8918 9.05829H64.3703V11.5044Z" fill="black" stroke="white" stroke-width="0.2" stroke-miterlimit="10"/>
<path d="M74.9037 14.3017C74.5656 14.64 74.1642 14.9084 73.7224 15.0915C73.2806 15.2746 72.8071 15.3688 72.3288 15.3688C71.8506 15.3688 71.377 15.2746 70.9352 15.0915C70.4934 14.9084 70.0921 14.64 69.754 14.3017C69.0924 13.5983 68.724 12.6691 68.724 11.7034C68.724 10.7378 69.0924 9.80856 69.754 9.10523C70.0921 8.76692 70.4934 8.49854 70.9352 8.31544C71.377 8.13233 71.8506 8.03809 72.3288 8.03809C72.8071 8.03809 73.2806 8.13233 73.7224 8.31544C74.1642 8.49854 74.5656 8.76692 74.9037 9.10523C75.2375 9.4489 75.4996 9.85569 75.6744 10.3018C75.8492 10.7479 75.9334 11.2244 75.9219 11.7034C75.9388 12.1831 75.8571 12.6612 75.682 13.1081C75.5068 13.5549 75.242 13.9612 74.9037 14.3017V14.3017ZM70.4211 13.7165C70.6677 13.9726 70.9643 14.1754 71.2924 14.3123C71.6206 14.4492 71.9733 14.5173 72.3288 14.5123C72.6847 14.5194 73.038 14.4523 73.3665 14.3152C73.6949 14.1782 73.9912 13.9743 74.2365 13.7165C74.7415 13.1677 75.0218 12.4492 75.0218 11.7034C75.0218 10.9577 74.7415 10.2392 74.2365 9.69041C73.9912 9.43258 73.6949 9.22867 73.3665 9.09165C73.038 8.95463 72.6847 8.88751 72.3288 8.89456C71.9733 8.88963 71.6206 8.95771 71.2924 9.09461C70.9643 9.2315 70.6677 9.43429 70.4211 9.69041C69.9236 10.2428 69.6482 10.96 69.6482 11.7034C69.6482 12.4469 69.9236 13.1641 70.4211 13.7165Z" fill="black" stroke="white" stroke-width="0.2" stroke-miterlimit="10"/>
<path d="M77.2444 15.2146V8.19238H78.3445L81.7503 13.658V12.3004V8.19238H82.6632V15.2146H81.7152L78.2041 9.49149V10.8374V15.2146H77.2444Z" fill="black" stroke="white" stroke-width="0.2" stroke-miterlimit="10"/>
<path d="M84.2666 15.2146V8.19238H85.1678V15.2146H84.2666Z" fill="black" stroke="white" stroke-width="0.2" stroke-miterlimit="10"/>
<path d="M86.7126 15.2147V8.19249H89.2524C89.7789 8.1872 90.2883 8.37927 90.6802 8.73086C90.8758 8.90058 91.0317 9.1112 91.1368 9.34783C91.242 9.58445 91.2939 9.8413 91.2888 10.1002C91.2916 10.4155 91.2021 10.7247 91.0313 10.9897C90.8586 11.241 90.6195 11.4395 90.3408 11.5632V11.5632C90.6787 11.6787 90.9756 11.8902 91.1952 12.1717C91.4103 12.4586 91.5254 12.808 91.5229 13.1666C91.5288 13.4364 91.4753 13.7042 91.3661 13.951C91.2569 14.1977 91.0946 14.4174 90.8909 14.5944C90.4847 14.9724 89.9476 15.178 89.3928 15.1679L86.7126 15.2147ZM87.6138 11.2003H89.2524C89.4057 11.2092 89.559 11.1833 89.7009 11.1245C89.8427 11.0657 89.9695 10.9756 90.0716 10.8609C90.2701 10.6665 90.3837 10.4014 90.3876 10.1236C90.3987 9.8449 90.3023 9.57258 90.1184 9.36286C90.02 9.25371 89.8987 9.16772 89.7631 9.11106C89.6275 9.0544 89.4811 9.02847 89.3343 9.03515H87.6138V11.2003ZM87.6138 14.3486H89.4396C89.5981 14.354 89.7558 14.3242 89.9015 14.2615C90.0472 14.1988 90.1772 14.1046 90.2823 13.9858C90.4844 13.77 90.5973 13.4856 90.5983 13.19C90.5912 12.8968 90.4742 12.6169 90.2706 12.4058C90.1577 12.2874 90.0213 12.1939 89.8701 12.1314C89.719 12.0689 89.5563 12.0388 89.3928 12.043H87.6138V14.3486Z" fill="black" stroke="white" stroke-width="0.2" stroke-miterlimit="10"/>
<path d="M92.7401 15.2146V8.19238H93.6296V14.3485H96.6726V15.2146H92.7401Z" fill="black" stroke="white" stroke-width="0.2" stroke-miterlimit="10"/>
<path d="M101.916 9.05846H98.7206V11.2822H101.6V12.1248H98.7206V14.3485H101.916V15.2146H97.8195V8.19238H101.916V9.05846Z" fill="black" stroke="white" stroke-width="0.2" stroke-miterlimit="10"/>
<path d="M107.37 15.3666C106.832 15.3567 106.31 15.1854 105.872 14.8751C105.391 14.5417 105.053 14.0407 104.924 13.4706L105.743 13.1312C105.843 13.5122 106.055 13.8545 106.352 14.1143C106.631 14.3666 106.993 14.5081 107.37 14.5122C107.731 14.5225 108.086 14.4113 108.376 14.1962C108.511 14.1041 108.619 13.9798 108.693 13.8346C108.767 13.6894 108.803 13.528 108.798 13.3653C108.807 13.1903 108.773 13.0157 108.7 12.8566C108.627 12.6976 108.515 12.5588 108.376 12.4524C107.971 12.182 107.524 11.9803 107.054 11.8555C106.531 11.7203 106.048 11.4591 105.649 11.0948C105.491 10.945 105.366 10.7632 105.283 10.5614C105.2 10.3595 105.162 10.1424 105.169 9.92439C105.17 9.67426 105.223 9.42703 105.326 9.19905C105.429 8.97107 105.579 8.76752 105.766 8.60187C106.19 8.26426 106.711 8.07178 107.253 8.05282C107.794 8.03385 108.328 8.18941 108.774 8.49654C109.111 8.73696 109.365 9.07653 109.5 9.46795L108.681 9.80735C108.604 9.56099 108.447 9.34703 108.236 9.19876C107.986 8.99405 107.669 8.88974 107.346 8.90617C107.025 8.90094 106.712 9.00402 106.457 9.19876C106.342 9.28169 106.248 9.39063 106.183 9.51672C106.118 9.64282 106.083 9.78249 106.082 9.92439C106.084 10.0526 106.115 10.1786 106.174 10.2925C106.233 10.4063 106.318 10.5047 106.422 10.5798C106.724 10.7968 107.06 10.9628 107.417 11.0714C107.716 11.1578 108.009 11.2633 108.294 11.3874C108.542 11.5042 108.777 11.6453 108.997 11.8087C109.228 11.9741 109.413 12.1956 109.535 12.4524C109.661 12.736 109.725 13.0433 109.722 13.3536C109.728 13.6705 109.655 13.9839 109.512 14.2665C109.383 14.5227 109.189 14.7406 108.95 14.8985C108.721 15.0587 108.468 15.1812 108.201 15.2613C107.93 15.337 107.65 15.3725 107.37 15.3666V15.3666Z" fill="black" stroke="white" stroke-width="0.2" stroke-miterlimit="10"/>
<path d="M113.456 15.3668C113.105 15.3816 112.756 15.3214 112.431 15.1902C112.106 15.059 111.813 14.8598 111.571 14.606C111.08 14.0581 110.824 13.3395 110.857 12.6047V8.19238H111.759V12.6398C111.735 13.1297 111.888 13.6118 112.192 13.9974C112.35 14.1723 112.546 14.3093 112.765 14.3984C112.984 14.4875 113.22 14.5265 113.456 14.5124C113.684 14.5313 113.914 14.4992 114.129 14.4182C114.343 14.3372 114.537 14.2095 114.696 14.0442C115.004 13.6602 115.161 13.178 115.141 12.6866V8.19238H116.042V12.6047C116.077 13.3377 115.825 14.0557 115.34 14.606C115.1 14.8617 114.807 15.0621 114.481 15.1935C114.156 15.3248 113.806 15.384 113.456 15.3668V15.3668Z" fill="black" stroke="white" stroke-width="0.2" stroke-miterlimit="10"/>
<path d="M117.505 15.2144V8.19222H119.846C120.419 8.18238 120.973 8.39653 121.391 8.78911C121.604 8.97515 121.773 9.20589 121.886 9.46486C121.999 9.72383 122.054 10.0046 122.046 10.2872C122.046 10.7635 121.876 11.2242 121.566 11.5863C121.267 11.9466 120.855 12.1942 120.396 12.2885V12.2885L122.362 15.2144H121.297L119.378 12.3704H118.383V15.2144H117.505ZM118.406 11.5278H119.858C120.2 11.5347 120.531 11.4089 120.782 11.1767C120.906 11.0646 121.005 10.9272 121.072 10.7738C121.138 10.6204 121.171 10.4544 121.168 10.2872C121.165 9.97011 121.044 9.66552 120.829 9.43281C120.713 9.30768 120.572 9.20933 120.414 9.14464C120.256 9.07996 120.086 9.05048 119.916 9.05829H118.406V11.5278Z" fill="black" stroke="white" stroke-width="0.2" stroke-miterlimit="10"/>
<defs>
<linearGradient id="paint0_linear" x1="25.5141" y1="10.1944" x2="5.87527" y2="29.8332" gradientUnits="userSpaceOnUse">
<stop stop-color="#00A0FF"/>
<stop offset="0.01" stop-color="#00A1FF"/>
<stop offset="0.26" stop-color="#00BEFF"/>
<stop offset="0.51" stop-color="#00D2FF"/>
<stop offset="0.76" stop-color="#00DFFF"/>
<stop offset="1" stop-color="#00E3FF"/>
</linearGradient>
<linearGradient id="paint1_linear" x1="39.5937" y1="23.4076" x2="11.2824" y2="23.4076" gradientUnits="userSpaceOnUse">
<stop stop-color="#FFE000"/>
<stop offset="0.41" stop-color="#FFBD00"/>
<stop offset="0.78" stop-color="#FFA500"/>
<stop offset="1" stop-color="#FF9C00"/>
</linearGradient>
<linearGradient id="paint2_linear" x1="29.0603" y1="26.0996" x2="2.42262" y2="52.7255" gradientUnits="userSpaceOnUse">
<stop stop-color="#FF3A44"/>
<stop offset="1" stop-color="#C31162"/>
</linearGradient>
<linearGradient id="paint3_linear" x1="8.54367" y1="0.210827" x2="20.4346" y2="12.1018" gradientUnits="userSpaceOnUse">
<stop stop-color="#32A071"/>
<stop offset="0.07" stop-color="#2DA771"/>
<stop offset="0.48" stop-color="#15CF74"/>
<stop offset="0.8" stop-color="#06E775"/>
<stop offset="1" stop-color="#00F076"/>
</linearGradient>
</defs>
</svg>
