<svg xmlns="http://www.w3.org/2000/svg" xmlns:xlink="http://www.w3.org/1999/xlink" width="40" height="24" viewBox="0 0 40 24">
    <defs>
        <linearGradient id="b" x1="50%" x2="50%" y1="0%" y2="100%">
            <stop offset="0%" stop-color="#FFF" stop-opacity=".5"/>
            <stop offset="100%" stop-opacity=".5"/>
        </linearGradient>
        <path id="a" d="M20.352.667V8.03h1.482V4.114a4.4 4.4 0 0 1 .313-.073c.116-.023.24-.035.373-.035.331 0 .558.098.681.293.123.197.184.53.184 1v2.73h1.482V5.123c0-.353-.035-.672-.105-.96a1.863 1.863 0 0 0-.358-.743 1.643 1.643 0 0 0-.675-.485c-.283-.114-.636-.171-1.06-.171a3.152 3.152 0 0 0-.835.137V.432l-1.482.234zm-19.83 0v5.669c0 .274.028.52.084.74.057.218.163.404.318.557.156.153.368.273.638.358.268.084.618.13 1.049.136l.208-1.204a1.33 1.33 0 0 1-.427-.088.61.61 0 0 1-.245-.176.62.62 0 0 1-.114-.264 1.882 1.882 0 0 1-.03-.353V.432L.524.668zm16.17 2.291a2.543 2.543 0 0 0-.845.583c-.232.245-.41.532-.532.861-.123.33-.185.68-.185 1.053 0 .386.052.743.155 1.072.102.33.265.615.487.856.222.241.507.433.85.573.345.14.756.21 1.234.21.311 0 .596-.025.855-.077.259-.053.474-.115.646-.187l-.209-1.194a2.457 2.457 0 0 1-.566.156c-.205.034-.398.05-.577.05-.504 0-.857-.127-1.06-.382-.201-.255-.302-.614-.302-1.077 0-.438.107-.79.323-1.057.215-.268.542-.402.98-.402.205 0 .39.02.556.059a3.9 3.9 0 0 1 .458.137l.308-1.165a3.685 3.685 0 0 0-.676-.21 3.688 3.688 0 0 0-.766-.074c-.424 0-.803.072-1.134.215zm-6.195-.102a8.44 8.44 0 0 0-.975.2V8.03h1.481V4.055c.093-.013.2-.024.319-.034.119-.01.232-.015.339-.015.344 0 .58.098.706.293.125.197.188.53.188 1v2.73h1.482V5.123c0-.353-.037-.672-.109-.96a1.889 1.889 0 0 0-.369-.743 1.656 1.656 0 0 0-.7-.485c-.295-.114-.665-.171-1.109-.171-.438 0-.855.03-1.253.093zm16.652.038a9.205 9.205 0 0 0-.94.26V8.03h1.481V4.094c.067-.02.166-.037.294-.053a2.769 2.769 0 0 1 .91.029c.179.036.335.07.468.103l.249-1.204a1.596 1.596 0 0 0-.289-.084 5.675 5.675 0 0 0-.964-.112c-.445 0-.848.04-1.209.121zM6.65 2.88v3.975a5.677 5.677 0 0 1-.319.034c-.12.01-.232.014-.339.014-.344 0-.58-.104-.706-.312-.125-.21-.188-.549-.188-1.02v-2.69H3.615v2.868c0 .352.036.675.109.968.073.295.196.547.368.76.172.21.405.376.702.494.294.118.664.176 1.108.176.437 0 .856-.031 1.253-.093.397-.062.723-.129.975-.2V2.88H6.648z"/>
    </defs>
    <g fill="none" fill-rule="evenodd">
        <rect width="39" height="23" x=".5" y=".5" fill="#FFF" stroke="#E0E2E4" rx="4"/>
        <g transform="translate(5.263 7.292)">
            <mask id="c" fill="#fff">
                <use xlink:href="#a"/>
            </mask>
            <use fill="#D8D8D8" xlink:href="#a"/>
            <use fill="url(#b)" xlink:href="#a"/>
            <use fill="url(#b)" xlink:href="#a"/>
            <use fill="url(#b)" xlink:href="#a"/>
            <use fill="url(#b)" xlink:href="#a"/>
            <use fill="#1B2733" xlink:href="#a"/>
            <path fill="#1B2733" d="M.251 8.434h29.63V.164H.25z" mask="url(#c)"/>
        </g>
    </g>
</svg>
