<svg width="40" height="24" viewBox="0 0 40 24" fill="none" xmlns="http://www.w3.org/2000/svg">
<g id="icon CB">
<g id="MasterCard-light">
<g id="Rectangle">
<rect width="40" height="24" rx="4" fill="url(#paint0_linear)"/>
<rect x="0.5" y="0.5" width="39" height="23" rx="3.5" stroke="black" stroke-opacity="0.16"/>
</g>
<g id="Frame" clip-path="url(#clip0)">
<path id="Vector" d="M14.3508 11.6632C14.339 11.6868 14.339 11.6986 14.339 11.7105C14.339 11.8878 14.339 12.0651 14.339 12.2543C14.339 12.2779 14.339 12.2898 14.3508 12.3134C14.3745 12.3134 14.3981 12.3252 14.4218 12.3252C14.4573 12.3252 14.4927 12.3252 14.54 12.3252C16.5144 12.3252 18.477 12.3252 20.4513 12.3252C20.4868 12.3252 20.5105 12.3252 20.5459 12.3252C20.6169 12.3252 20.6405 12.3489 20.6287 12.4198C20.6287 12.4553 20.6287 12.4908 20.6287 12.5262C20.5814 13.2119 20.4395 13.874 20.1794 14.5124C19.8602 15.2809 19.3991 15.943 18.7607 16.4986C18.3114 16.8888 17.8149 17.1844 17.271 17.4208C16.81 17.6218 16.3489 17.7637 15.8523 17.8582C15.6159 17.9055 15.3794 17.941 15.1548 17.9646C14.9065 17.9883 14.6701 18.0001 14.4218 18.0119C14.1144 18.0238 13.8188 18.0119 13.5114 18.0001C13.3105 17.9883 13.1213 17.9646 12.9203 17.941C12.6129 17.9055 12.3174 17.8464 12.0218 17.7755C11.206 17.5627 10.4494 17.2316 9.77548 16.7233C9.14888 16.2385 8.66415 15.6711 8.29765 14.9972C8.06119 14.5479 7.88385 14.0632 7.77745 13.5666C7.6474 13.011 7.58829 12.4435 7.60011 11.876C7.60011 11.5686 7.62376 11.2612 7.67105 10.9656C7.74198 10.4573 7.87203 9.96071 8.07302 9.4878C8.28582 8.99125 8.55775 8.54199 8.9006 8.1282C9.45627 7.46613 10.142 6.96957 10.9459 6.61489C11.407 6.41391 11.8799 6.26022 12.3646 6.16563C12.6366 6.11834 12.9203 6.07105 13.1922 6.04741C13.6297 6.00012 14.0789 6.00012 14.5282 6.01194C14.6937 6.01194 14.8592 6.03558 15.0366 6.04741C15.273 6.05923 15.4976 6.10652 15.7341 6.14199C16.1242 6.21292 16.4908 6.30751 16.8691 6.43755C17.2238 6.5676 17.5666 6.7213 17.8976 6.91046C18.808 7.44248 19.5055 8.16366 19.9784 9.09765C20.1558 9.45233 20.2976 9.80701 20.3922 10.1853C20.4632 10.4573 20.5223 10.7174 20.5577 10.9893C20.5814 11.1666 20.605 11.344 20.6169 11.5095C20.6169 11.5331 20.6169 11.5568 20.6169 11.5804C20.6169 11.6159 20.605 11.6277 20.5696 11.6395C20.5223 11.6395 20.4868 11.6395 20.4395 11.6395C19.6238 11.6395 18.8198 11.6395 18.0041 11.6395C16.8454 11.6395 15.6868 11.6395 14.5164 11.6395C14.4573 11.6513 14.41 11.6632 14.3508 11.6632ZM25.606 12.3252C24.2346 12.3252 22.8632 12.3252 21.4917 12.3252C21.4444 12.3252 21.409 12.3252 21.3617 12.3252C21.3144 12.3252 21.2908 12.3489 21.2908 12.3962C21.2908 12.4316 21.2908 12.4553 21.2908 12.4908C21.2908 14.1578 21.2908 15.8247 21.2908 17.5036C21.2908 17.539 21.2908 17.5627 21.2908 17.5981C21.2908 17.6454 21.3144 17.6691 21.3617 17.6691C21.409 17.6691 21.4563 17.6691 21.5036 17.6691C23.076 17.6691 24.6484 17.6691 26.2208 17.6691C27.3085 17.6691 28.3962 17.6691 29.4839 17.6691C29.7558 17.6691 30.0395 17.6454 30.3114 17.5863C30.7252 17.5154 31.1036 17.338 31.4228 17.0779C32.0257 16.5814 32.3449 15.9312 32.3922 15.1509C32.404 14.9262 32.3922 14.7016 32.3449 14.4888C32.2149 13.8622 31.9075 13.342 31.4109 12.94C31.1272 12.7154 30.8198 12.5499 30.4651 12.4671C30.2405 12.4198 30.0159 12.3844 29.7912 12.3725C29.5666 12.3607 29.3302 12.3489 29.1055 12.3489C27.9469 12.3252 26.7765 12.3252 25.606 12.3252ZM21.4563 11.6513C21.7991 11.6513 22.142 11.6513 22.4848 11.6513C24.3055 11.6513 26.1262 11.6513 27.9469 11.6513C28.3371 11.6513 28.739 11.6513 29.1292 11.6513C29.472 11.6513 29.8149 11.6513 30.1459 11.5922C30.3706 11.5568 30.5952 11.5095 30.7962 11.4267C31.3637 11.1903 31.7893 10.8001 32.073 10.2563C32.3922 9.66514 32.4632 9.03854 32.3095 8.38829C32.1912 7.84445 31.9193 7.39519 31.5055 7.02869C31.2573 6.80406 30.9617 6.62672 30.6425 6.52031C30.3824 6.43755 30.1105 6.40209 29.8267 6.37844C29.5666 6.3548 29.2947 6.3548 29.0346 6.3548C26.741 6.3548 24.4356 6.3548 22.142 6.3548C21.9055 6.3548 21.6573 6.3548 21.4208 6.3548C21.3853 6.3548 21.338 6.3548 21.3026 6.36662C21.2789 6.41391 21.2908 6.4612 21.2908 6.50849C21.2908 7.57253 21.2908 8.64839 21.2908 9.71243C21.2908 10.3036 21.2908 10.8947 21.2908 11.4977C21.2908 11.5449 21.2789 11.5922 21.3026 11.6513C21.3499 11.6632 21.409 11.6513 21.4563 11.6513Z" fill="white"/>
</g>
</g>
</g>
<defs>
<linearGradient id="paint0_linear" x1="-5.96046e-07" y1="24" x2="40" y2="1.86761e-06" gradientUnits="userSpaceOnUse">
<stop stop-color="#3F842E"/>
<stop offset="0.479167" stop-color="#12699E"/>
<stop offset="1" stop-color="#091844"/>
</linearGradient>
<clipPath id="clip0">
<rect width="24.8039" height="12" fill="white" transform="translate(7.6001 6)"/>
</clipPath>
</defs>
</svg>
