<svg width="80" height="80" viewBox="0 0 80 80" fill="none" xmlns="http://www.w3.org/2000/svg">
<path d="M40 80C62.0914 80 80 62.0914 80 40C80 17.9086 62.0914 0 40 0C17.9086 0 0 17.9086 0 40C0 62.0914 17.9086 80 40 80Z" fill="white"/>
<g clip-path="url(#clip0)">
<path d="M37.3181 34.704H38.9915V42.0377H37.3181V34.704Z" fill="#00519C"/>
<path d="M41.1116 34.704H44.0782C46.4687 34.704 48.1215 36.2862 48.1215 38.3477V38.3686C48.1215 40.4323 46.4687 42.0355 44.0782 42.0355H41.1116V34.704ZM44.0782 40.5813C45.447 40.5813 46.369 39.6914 46.369 38.3918V38.3708C46.369 37.0724 45.4447 36.1626 44.0782 36.1626H42.7851V40.5791L44.0782 40.5813Z" fill="#00519C"/>
<path d="M51.6745 34.6521H53.2219L56.4817 42.0377H54.7281L54.0329 40.3925H50.8166L50.1202 42.0377H48.4113L51.6745 34.6521ZM53.435 38.9682L52.4202 36.5899L51.4088 38.9682H53.435Z" fill="#00519C"/>
<path d="M58.4449 36.1924H56.1301V34.704H62.4298V36.1924H60.1195V42.0377H58.4449V36.1924Z" fill="#00519C"/>
<path d="M63.9337 34.704H69.7259V36.1394H65.5922V37.6278H69.1784V39.0631H65.5922V40.6089H69.7214V42.0443H63.9337V34.704Z" fill="#00519C"/>
<path d="M39.5092 44.9206C39.5092 45.6383 38.9686 46.1451 38.2057 46.1451H37.3181V43.7016H38.2057C38.9686 43.7016 39.5092 44.2051 39.5092 44.9206ZM38.9903 44.9206C38.9966 44.8177 38.9806 44.7147 38.9432 44.6181C38.9059 44.5215 38.8481 44.4335 38.7735 44.3597C38.699 44.2858 38.6093 44.2277 38.5101 44.1892C38.411 44.1506 38.3046 44.1323 38.1977 44.1356H37.8255V45.7167H38.1977C38.665 45.7123 38.9903 45.3843 38.9903 44.9162V44.9206Z" fill="#00519C"/>
<path d="M41.8653 46.1451H41.3568V43.7016H41.8653V46.1451Z" fill="#00519C"/>
<path d="M48.7056 46.1451H48.197V43.7016H48.7056V46.1451Z" fill="#00519C"/>
<path d="M53.8358 43.7016V45.3413C53.8406 45.5252 53.7819 45.7055 53.6689 45.8537C53.5558 46.002 53.3949 46.1099 53.2114 46.1604C53.0279 46.211 52.8321 46.2013 52.6549 46.133C52.4777 46.0647 52.329 45.9415 52.2323 45.7829C52.158 45.9052 52.0515 46.0064 51.9235 46.0762C51.7956 46.146 51.6508 46.182 51.5038 46.1804C51.3895 46.1826 51.276 46.1623 51.17 46.1208C51.0641 46.0793 50.9681 46.0175 50.8877 45.9391C50.8074 45.8607 50.7444 45.7674 50.7026 45.6648C50.6609 45.5622 50.6412 45.4525 50.6448 45.3424V43.7016H51.1533V45.3037C51.1477 45.3589 51.1544 45.4145 51.173 45.467C51.1915 45.5194 51.2215 45.5674 51.2609 45.6078C51.3003 45.6481 51.3481 45.6799 51.4013 45.701C51.4544 45.7221 51.5117 45.7319 51.5691 45.7299C51.6267 45.7317 51.684 45.7217 51.7372 45.7006C51.7905 45.6795 51.8386 45.6478 51.8783 45.6076C51.918 45.5673 51.9484 45.5195 51.9675 45.4671C51.9867 45.4147 51.9942 45.3591 51.9895 45.3037V43.7016H52.4969V45.3037C52.4926 45.3592 52.5003 45.4149 52.5193 45.4673C52.5384 45.5198 52.5685 45.5679 52.6078 45.6086C52.647 45.6493 52.6945 45.6818 52.7474 45.704C52.8002 45.7262 52.8573 45.7377 52.9149 45.7377C52.9726 45.7377 53.0296 45.7262 53.0825 45.704C53.1354 45.6818 53.1829 45.6493 53.2221 45.6086C53.2614 45.5679 53.2915 45.5198 53.3105 45.4673C53.3296 45.4149 53.3373 45.3592 53.333 45.3037V43.7016H53.8358Z" fill="#00519C"/>
<path d="M58.3063 44.9206C58.3063 45.6493 57.7508 46.1771 56.9811 46.1771C56.2114 46.1771 55.6547 45.6493 55.6547 44.9206C55.6547 44.1919 56.2102 43.6674 56.9811 43.6674C57.752 43.6674 58.3063 44.1952 58.3063 44.9206ZM56.1736 44.9206C56.1736 45.3932 56.5172 45.7344 56.9811 45.7344C57.445 45.7344 57.7909 45.3932 57.7909 44.9206C57.7909 44.8182 57.77 44.7169 57.7293 44.6223C57.6887 44.5277 57.6291 44.4418 57.554 44.3694C57.479 44.297 57.3898 44.2396 57.2917 44.2004C57.1936 44.1612 57.0884 44.1411 56.9822 44.1411C56.876 44.1411 56.7709 44.1612 56.6728 44.2004C56.5747 44.2396 56.4855 44.297 56.4104 44.3694C56.3354 44.4418 56.2758 44.5277 56.2351 44.6223C56.1945 44.7169 56.1736 44.8182 56.1736 44.9206V44.9206Z" fill="#00519C"/>
<path d="M62.1847 45.6317V46.1451H61.6773V45.6273C61.6818 45.5792 61.6757 45.5308 61.6595 45.4852C61.6433 45.4395 61.6172 45.3977 61.583 45.3625C61.5488 45.3272 61.5073 45.2994 61.4612 45.2807C61.4151 45.262 61.3653 45.2529 61.3153 45.2541H60.667V46.1451H60.1596V43.7016H61.3428C61.8571 43.7016 62.1858 43.9732 62.1858 44.4061C62.1922 44.5402 62.1547 44.6729 62.0786 44.7854C62.0026 44.8979 61.8919 44.9846 61.762 45.0332C62.0243 45.1105 62.1847 45.3071 62.1847 45.6317ZM61.6704 44.4944C61.6737 44.4453 61.666 44.3961 61.6478 44.3501C61.6296 44.3042 61.6013 44.2625 61.5649 44.228C61.5284 44.1936 61.4847 44.1671 61.4367 44.1503C61.3887 44.1336 61.3375 44.1271 61.2867 44.1311H60.667V44.8599H61.2878C61.3387 44.8634 61.3898 44.8565 61.4377 44.8394C61.4855 44.8223 61.5291 44.7956 61.5653 44.761C61.6015 44.7264 61.6297 44.6846 61.6478 44.6387C61.6659 44.5927 61.6736 44.5435 61.6704 44.4944V44.4944Z" fill="#00519C"/>
<path d="M65.764 45.7123V46.1451H64.0837V43.7016H64.5912V45.7123H65.764Z" fill="#00519C"/>
<path d="M69.7306 44.9206C69.7306 45.6383 69.1899 46.1451 68.426 46.1451H67.5394V43.7016H68.426C69.1899 43.7016 69.7306 44.2051 69.7306 44.9206ZM69.2117 44.9206C69.218 44.8177 69.2019 44.7147 69.1646 44.6181C69.1273 44.5215 69.0695 44.4335 68.9949 44.3597C68.9203 44.2858 68.8306 44.2277 68.7315 44.1892C68.6323 44.1506 68.526 44.1323 68.4191 44.1356H68.0468V45.7167H68.4191C68.8864 45.7123 69.2117 45.3843 69.2117 44.9162V44.9206Z" fill="#00519C"/>
<path d="M29.2395 35.5012C28.9979 35.35 28.7478 35.2118 28.4904 35.0871C26.7015 34.2216 24.6308 34.0708 22.7273 34.6675C20.8238 35.2643 19.2412 36.5604 18.3227 38.2748C18.6223 37.7328 19.0582 37.272 19.5905 36.9347C20.1229 36.5974 20.7346 36.3943 21.3695 36.3442C22.0044 36.2941 22.6422 36.3985 23.2244 36.6479C23.8066 36.8972 24.3145 37.2835 24.7015 37.7713L24.7289 37.8055L24.7633 37.8508C25.7282 39.111 26.2467 40.6371 26.242 42.2033C26.2403 43.7421 25.7365 45.2413 24.8019 46.4888C23.8674 47.7362 22.5495 48.6687 21.0348 49.1543C19.5201 49.6398 17.8854 49.6538 16.362 49.1942C14.8386 48.7346 13.5038 47.8247 12.5465 46.5934C13.7104 48.0917 15.2516 49.279 17.0244 50.0428C18.7971 50.8066 20.7428 51.1217 22.6772 50.9583C24.6115 50.7949 26.4707 50.1584 28.0786 49.109C29.6865 48.0596 30.9901 46.6321 31.8659 44.9615V44.9615C31.8695 44.9554 31.8725 44.9491 31.8751 44.9427C31.8808 44.9327 31.8854 44.9228 31.8911 44.914C32.7229 43.3045 32.9124 41.4565 32.4235 39.7211C31.9347 37.9858 30.8016 36.484 29.2395 35.5012V35.5012Z" fill="#E5375B"/>
<path d="M33.0915 40.0006C33.0922 37.0988 31.9034 34.3144 29.7839 32.254C27.6644 30.1935 24.7862 29.0239 21.7761 29H21.5826C19.5835 29.0247 17.6748 29.807 16.2695 31.1778C14.8642 32.5486 14.0753 34.3976 14.0733 36.3249V36.3337C14.0706 37.916 14.6012 39.4563 15.5852 40.7227C16.1204 41.4095 16.7759 42.001 17.5221 42.4705C18.758 43.2508 20.2037 43.6653 21.6811 43.663C21.0409 43.6628 20.4112 43.507 19.8501 43.2099C19.289 42.9128 18.8148 42.484 18.4713 41.9633C18.1278 41.4426 17.9261 40.8468 17.8849 40.231C17.8437 39.6152 17.9644 38.9993 18.2357 38.4404C18.2632 38.3841 18.2918 38.33 18.3227 38.2726C19.2408 36.5578 20.8233 35.2612 22.7268 34.664C24.6303 34.0669 26.7013 34.2173 28.4905 35.0827C28.7478 35.2074 28.9979 35.3456 29.2395 35.4968C30.801 36.4794 31.9337 37.9805 32.4227 39.7151C32.9118 41.4497 32.723 43.297 31.8923 44.9063C32.6821 43.3831 33.0927 41.7034 33.0915 40.0006V40.0006Z" fill="#2EAA6E"/>
<path d="M24.7622 37.8508C25.1731 38.3981 25.4191 39.0443 25.4731 39.7179C25.5272 40.3915 25.3871 41.0664 25.0683 41.6681C24.7496 42.2699 24.2646 42.775 23.6669 43.1278C23.0691 43.4806 22.3819 43.6673 21.681 43.6674C20.2032 43.6684 18.7574 43.2524 17.5221 42.4705C16.7755 41.9997 16.12 41.4066 15.5852 40.7182C14.6012 39.4519 14.0706 37.9116 14.0733 36.3293V36.3205C14.0764 34.394 14.8659 32.5461 16.2711 31.1762C17.6763 29.8064 19.5842 29.0247 21.5825 29C19.4732 29.0165 17.4099 29.5963 15.6218 30.675C13.8337 31.7537 12.3908 33.2891 11.4533 35.1107C10.5158 36.9323 10.1205 38.9687 10.3113 40.9938C10.502 43.0189 11.2714 44.9533 12.5339 46.5823V46.5823L12.5419 46.5923C13.7444 48.1544 15.5414 49.1921 17.5376 49.477C19.5338 49.7619 21.5656 49.2708 23.1861 48.1116C24.8066 46.9524 25.883 45.2201 26.1786 43.2958C26.4742 41.3716 25.9647 39.4129 24.7622 37.8508Z" fill="#00519C"/>
<path d="M45.0346 43.6674C44.2638 43.6674 43.7094 44.1952 43.7094 44.9206C43.7094 45.646 44.2638 46.1771 45.0346 46.1771C45.8055 46.1771 46.3495 45.6526 46.3495 44.9206C46.3495 44.8775 46.3495 44.829 46.3495 44.7936H45.0381V45.2088H45.7906C45.7497 45.3692 45.6523 45.5109 45.515 45.6097C45.3778 45.7086 45.2092 45.7585 45.0381 45.7509C44.5673 45.7509 44.2283 45.3987 44.2283 44.9162C44.2283 44.4337 44.5719 44.0892 45.0381 44.0892C45.189 44.0853 45.3376 44.1253 45.4645 44.2041C45.5914 44.2829 45.6906 44.3968 45.7494 44.5308H46.2888C46.148 44.0229 45.644 43.6674 45.0346 43.6674Z" fill="#00519C"/>
</g>
<defs>
<clipPath id="clip0">
<rect width="60" height="22" fill="white" transform="translate(10 29)"/>
</clipPath>
</defs>
</svg>
