<svg fill="none" height="16" viewBox="0 0 18 16" width="18" xmlns="http://www.w3.org/2000/svg"><path clip-rule="evenodd" d="m2.07168 3.77127h-.02483c-1.24177 0-2.04685-.83088-2.04685-1.8841 0-1.073698.828881-1.88717 2.09548-1.88717 1.26557 0 2.04375.811424 2.06858 1.8841 0 1.05321-.80301 1.88717-2.09238 1.88717zm15.52832 12.22873h-3.8898v-5.6246c0-1.47228-.6085-2.47734-1.9465-2.47734-1.0234 0-1.5926.67823-1.85749 1.33188-.08747.20657-.08589.48463-.08426.77126.00022.0389.00044.0779.00044.117v5.8818h-3.85362s.04967-9.9635 0-10.86918h3.85362v1.70583c.22761-.74585 1.45911-1.81033 3.42421-1.81033 2.438 0 4.3534 1.56342 4.3534 4.93001zm-13.72568-10.86918h-3.430388v10.86918h3.430388z" fill="#8c97a1" fill-rule="evenodd"/></svg>