<svg width="92" height="41" viewBox="0 0 92 41" fill="none" xmlns="http://www.w3.org/2000/svg">
<path d="M4.60745 8.72213C4.49449 8.47262 4.31346 8.25922 4.08468 8.10588C3.85589 7.95254 3.58842 7.86534 3.31231 7.85408C3.04637 7.85106 2.78938 7.94901 2.59423 8.12776C2.39909 8.30652 2.28063 8.55248 2.26325 8.81502C2.26325 9.68307 3.41916 10.0674 4.59773 10.596C5.77631 11.1245 6.91279 11.8484 6.91279 13.4147C6.90861 13.8557 6.81595 14.2916 6.64017 14.6969C6.4644 15.1022 6.20901 15.469 5.88883 15.7759C5.56865 16.0828 5.19005 16.3238 4.77499 16.4848C4.35993 16.6458 3.91669 16.7237 3.47097 16.7139C2.01394 16.7139 0.534244 15.8875 0 14.4878L1.6513 13.7446C2.05927 14.4878 2.55142 15.0259 3.4742 15.0259C3.66806 15.0371 3.86221 15.0094 4.04495 14.9444C4.22769 14.8794 4.39522 14.7785 4.53743 14.6477C4.67965 14.5169 4.7936 14.3589 4.87241 14.1833C4.95122 14.0078 4.99326 13.8182 4.99599 13.6261C4.99599 13.0944 4.7402 12.8413 4.29014 12.5435L2.39924 11.5313C1.28542 10.9387 0.456536 10.3878 0.456536 9.02963C0.456495 8.64752 0.533241 8.26922 0.682311 7.91672C0.831382 7.56422 1.0498 7.24455 1.32487 6.97631C1.59994 6.70806 1.92617 6.49659 2.28459 6.35419C2.64301 6.21179 3.02648 6.1413 3.41268 6.14682C3.99107 6.14238 4.55827 6.30445 5.0452 6.61326C5.53213 6.92208 5.91776 7.36432 6.15513 7.88611L4.60745 8.72213Z" fill="#1B2733"/>
<path d="M10.7237 0V7.7868H10.7658C11.0786 7.27474 11.5229 6.85381 12.0535 6.56686C12.5842 6.27991 13.1822 6.13718 13.7867 6.1532C16.6166 6.1532 17.3483 8.03984 17.3483 10.4582V16.3744H15.4056V10.692C15.4056 8.99758 15.1693 7.85086 13.1974 7.85086C10.7108 7.85086 10.7108 10.013 10.7108 11.8131V16.3744H8.76807V0H10.7237Z" fill="#1B2733"/>
<path d="M29.8205 11.4352C29.8205 12.8411 29.256 14.1895 28.251 15.1837C27.2461 16.1778 25.8831 16.7363 24.4619 16.7363C23.0407 16.7363 21.6777 16.1778 20.6728 15.1837C19.6678 14.1895 19.1033 12.8411 19.1033 11.4352C19.1376 10.0522 19.7171 8.73728 20.718 7.77117C21.7189 6.80506 23.0619 6.26428 24.4603 6.26428C25.8587 6.26428 27.2017 6.80506 28.2025 7.77117C29.2034 8.73728 29.7829 10.0522 29.8173 11.4352H29.8205ZM21.046 11.4352C21.0587 12.1037 21.271 12.7536 21.656 13.3032C22.041 13.8529 22.5816 14.2776 23.21 14.5242C23.8383 14.7707 24.5262 14.8281 25.1874 14.689C25.8485 14.5499 26.4534 14.2207 26.9259 13.7425C27.3985 13.2644 27.7177 12.6588 27.8433 12.0018C27.969 11.3447 27.8956 10.6656 27.6323 10.0497C27.369 9.43387 26.9276 8.90873 26.3635 8.54029C25.7994 8.17186 25.1378 7.97658 24.4619 7.97898C23.5478 7.9958 22.6771 8.36775 22.0379 9.01446C21.3987 9.66117 21.0424 10.5307 21.046 11.4352V11.4352Z" fill="#1B2733"/>
<path d="M35.0011 12.7708L37.9572 5.90335L40.894 12.7708L43.808 6.45429H45.9774L40.8778 16.7043L37.9411 10.0674L35.0011 16.7139L29.9015 6.4639H32.087L35.0011 12.7708Z" fill="#1B2733"/>
<path d="M49.0047 8.06227H49.0694C49.2663 7.49864 49.6366 7.01017 50.1285 6.66547C50.6204 6.32076 51.2091 6.13714 51.8119 6.14039C52.3764 6.15231 52.9262 6.32103 53.3984 6.62727L52.5209 8.36656C52.1946 8.08803 51.7729 7.94362 51.3424 7.96297C49.2637 7.96297 49.0079 9.88485 49.0079 11.4864V16.3744H47.0652V6.44469H49.0079L49.0047 8.06227Z" fill="#1B2733"/>
<path d="M64.2808 11.4352C64.2464 12.8181 63.6669 14.133 62.666 15.0991C61.6652 16.0653 60.3222 16.606 58.9238 16.606C57.5254 16.606 56.1824 16.0653 55.1815 15.0991C54.1806 14.133 53.6011 12.8181 53.5668 11.4352C53.6011 10.0522 54.1806 8.73728 55.1815 7.77117C56.1824 6.80506 57.5254 6.26428 58.9238 6.26428C60.3222 6.26428 61.6652 6.80506 62.666 7.77117C63.6669 8.73728 64.2464 10.0522 64.2808 11.4352V11.4352ZM55.4933 11.4352C55.506 12.1029 55.7178 12.7521 56.1019 13.3013C56.4861 13.8505 57.0256 14.2753 57.6527 14.5224C58.2799 14.7696 58.9669 14.828 59.6275 14.6905C60.2882 14.553 60.8931 14.2256 61.3664 13.7494C61.8398 13.2732 62.1605 12.6694 62.2884 12.0136C62.4162 11.3578 62.3456 10.6793 62.0852 10.063C61.8249 9.44683 61.3865 8.92035 60.825 8.54961C60.2634 8.17887 59.6037 7.98036 58.9286 7.97898C58.0111 7.9908 57.1355 8.36055 56.4921 9.00779C55.8488 9.65504 55.4898 10.5274 55.4933 11.4352V11.4352Z" fill="#1B2733"/>
<path d="M76.3839 11.4352C76.3496 12.8181 75.7701 14.133 74.7692 15.0991C73.7683 16.0653 72.4253 16.606 71.0269 16.606C69.6285 16.606 68.2855 16.0653 67.2847 15.0991C66.2838 14.133 65.7043 12.8181 65.6699 11.4352C65.7043 10.0522 66.2838 8.73728 67.2847 7.77117C68.2855 6.80506 69.6285 6.26428 71.0269 6.26428C72.4253 6.26428 73.7683 6.80506 74.7692 7.77117C75.7701 8.73728 76.3496 10.0522 76.3839 11.4352V11.4352ZM67.5997 11.4352C67.6124 12.1032 67.8243 12.7526 68.2088 13.3019C68.5932 13.8513 69.1331 14.2761 69.7606 14.523C70.3882 14.77 71.0755 14.8281 71.7363 14.69C72.3971 14.552 73.002 14.224 73.4751 13.7471C73.9482 13.2703 74.2684 12.6658 74.3955 12.0097C74.5226 11.3535 74.4511 10.6747 74.1897 10.0586C73.9284 9.44252 73.489 8.91648 72.9266 8.54651C72.3642 8.17653 71.7039 7.9791 71.0285 7.97898C70.1116 7.99164 69.2368 8.36175 68.5941 9.00891C67.9515 9.65606 67.5929 10.528 67.5964 11.4352H67.5997Z" fill="#1B2733"/>
<path d="M79.9973 7.68749H80.0394C80.3196 7.2332 80.7089 6.85432 81.1726 6.58445C81.6363 6.31458 82.1601 6.16205 82.6977 6.14038C83.9928 6.14038 84.9641 6.79702 85.5923 7.8989C85.9096 7.36735 86.3605 6.92605 86.9012 6.61791C87.4419 6.30976 88.054 6.14526 88.6779 6.14038C91.3136 6.14038 92 8.17757 92 10.423V16.3744H90.0573V10.7561C90.0573 9.47484 89.8857 7.85085 88.1923 7.85085C86.1362 7.85085 85.9841 9.97132 85.9841 11.496V16.3744H84.0414V11.1148C84.0414 9.83359 83.9766 7.85085 82.199 7.85085C80.143 7.85085 79.9714 9.9489 79.9714 11.496V16.3744H78.0287V6.44468H79.9714L79.9973 7.68749Z" fill="#1B2733"/>
<path d="M1.02186 27.4226H1.06705C1.84908 26.0817 3.55218 25.3047 5.11624 25.3047C8.35908 25.3047 10.3611 27.8077 10.3611 30.8814C10.3611 33.9552 8.35908 36.2759 5.14752 36.2759C4.34521 36.2975 3.55021 36.1201 2.83502 35.7598C2.11984 35.3994 1.50725 34.8677 1.05314 34.213H1.00795L0.941914 41H0V25.5282H1.04271L1.02186 27.4226ZM0.952341 31.019C0.952341 33.4773 2.63112 35.3201 5.18576 35.3201C7.6709 35.3201 9.32532 33.2572 9.32532 30.9055C9.32532 28.4988 7.7404 26.2605 5.15447 26.2605C2.43299 26.2743 0.952341 28.5022 0.952341 31.0293V31.019Z" fill="#1B2733"/>
<path d="M13.9235 27.1916H13.9656C14.1243 26.7311 14.4158 26.3331 14.7999 26.0526C15.1841 25.7721 15.642 25.6227 16.1107 25.625C16.4737 25.6273 16.8318 25.7115 17.1606 25.872L16.6454 26.7687C16.4384 26.637 16.2009 26.5668 15.9584 26.5657C13.7874 26.5657 13.9235 29.3876 13.9235 30.9102V36.1953H12.9514V25.8483H13.9235V27.1916Z" fill="#1B2733"/>
<path d="M21.046 22.0806C21.046 22.3299 20.9436 22.5689 20.7615 22.7452C20.5793 22.9215 20.3322 23.0205 20.0746 23.0205C19.817 23.0205 19.5699 22.9215 19.3878 22.7452C19.2056 22.5689 19.1033 22.3299 19.1033 22.0806C19.1033 21.8313 19.2056 21.5922 19.3878 21.4159C19.5699 21.2397 19.817 21.1406 20.0746 21.1406C20.3322 21.1406 20.5793 21.2397 20.7615 21.4159C20.9436 21.5922 21.046 21.8313 21.046 22.0806V22.0806ZM20.5988 36.1953H19.5254V25.6084H20.5988V36.1953Z" fill="#1B2733"/>
<path d="M27.894 34.1469L31.6614 25.625H32.7022L27.8454 36.5156L22.9886 25.625H24.0294L27.894 34.1469Z" fill="#1B2733"/>
<path d="M34.6899 30.994C34.6219 33.5592 36.4437 35.2726 38.8502 35.2726C40.4715 35.2726 41.7767 34.3281 42.5177 32.9693L43.3708 33.4531C42.9421 34.2943 42.2763 34.9989 41.4516 35.4843C40.6269 35.9697 39.6773 36.2159 38.7143 36.194C35.6314 36.194 33.6736 33.758 33.6736 30.8913C33.6736 28.0245 35.6756 25.625 38.7143 25.625C41.8651 25.625 43.7311 28.0808 43.7107 31.0006L34.6899 30.994ZM42.6978 30.0726C42.4497 28.2101 40.876 26.5397 38.738 26.5397C37.736 26.5409 36.7695 26.9018 36.0229 27.5534C35.2763 28.205 34.8018 29.1017 34.6899 30.0726H42.6978Z" fill="#1B2733"/>
<path d="M63.9842 27.959C63.5359 27.4232 62.9772 26.9928 62.347 26.6979C61.7169 26.403 61.0305 26.2507 60.3359 26.2516C57.8981 26.2516 56.0622 28.3551 56.0622 30.7283C56.0622 33.1016 57.8745 35.2597 60.3055 35.2597C61.0371 35.2492 61.7573 35.0757 62.4149 34.7517C63.0724 34.4276 63.651 33.961 64.1093 33.385V34.7509C63.0711 35.6772 61.7348 36.1906 60.3495 36.1953C57.2828 36.1953 55.0445 33.7777 55.0445 30.7318C55.0299 30.0192 55.1574 29.311 55.4192 28.6492C55.6811 27.9874 56.072 27.3855 56.5688 26.8793C57.0656 26.3731 57.6581 25.973 58.311 25.7027C58.964 25.4324 59.6641 25.2974 60.3698 25.3058C61.6856 25.2793 62.9658 25.7382 63.9707 26.5965L63.9842 27.959Z" fill="#1B2733"/>
<path d="M76.7363 30.7505C76.7363 31.8263 76.4141 32.8779 75.8105 33.7727C75.207 34.6675 74.349 35.3654 73.3448 35.7783C72.3407 36.1912 71.2354 36.3006 70.1685 36.0927C69.1016 35.8848 68.1208 35.3689 67.35 34.6101C66.5791 33.8514 66.0528 32.8837 65.8373 31.8294C65.6218 30.775 65.7269 29.681 66.1393 28.6857C66.5516 27.6903 67.2528 26.838 68.1543 26.2365C69.0558 25.6349 70.1173 25.311 71.2047 25.3057C71.9326 25.2919 72.6559 25.4231 73.3315 25.6915C74.0071 25.96 74.6212 26.3601 75.1373 26.8681C75.6534 27.3761 76.0609 27.9816 76.3356 28.6486C76.6103 29.3155 76.7466 30.0304 76.7363 30.7505V30.7505ZM66.7602 30.7743C66.7602 33.1395 68.6487 35.2323 71.1324 35.2323C72.334 35.2323 73.4864 34.7601 74.336 33.9196C75.1856 33.0791 75.663 31.9392 75.663 30.7505C75.663 29.5619 75.1856 28.4219 74.336 27.5814C73.4864 26.7409 72.334 26.2687 71.1324 26.2687C68.6281 26.2687 66.7602 28.3616 66.7602 30.7743Z" fill="#1B2733"/>
<path d="M79.749 27.1494H79.7946C80.0512 26.6782 80.4395 26.2859 80.9155 26.0168C81.3914 25.7478 81.936 25.6127 82.4875 25.6271C83.1287 25.6077 83.7608 25.7773 84.2996 26.1134C84.8383 26.4494 85.2581 26.9359 85.503 27.508C85.7724 26.9293 86.2146 26.4412 86.7729 26.1062C87.3313 25.7711 87.9805 25.6043 88.6377 25.6271C91.4007 25.6271 91.9547 27.4403 91.9547 29.6866V36.1953H90.9028V29.5682C90.9028 27.9782 90.6468 26.5675 88.6061 26.5675C86.3796 26.5675 85.8431 28.4484 85.8431 30.2414V36.1953H84.7912V29.8117C84.7912 28.2015 84.4896 26.5641 82.3998 26.5641C80.1487 26.5641 79.7315 28.8273 79.7315 30.5052V36.1953H78.6796V25.8503H79.7315L79.749 27.1494Z" fill="#1B2733"/>
<path d="M49.539 33.3125C50.9696 33.3125 52.1293 32.1652 52.1293 30.75C52.1293 29.3348 50.9696 28.1875 49.539 28.1875C48.1084 28.1875 46.9487 29.3348 46.9487 30.75C46.9487 32.1652 48.1084 33.3125 49.539 33.3125Z" fill="#1B2733"/>
</svg>
