<svg width="107" height="32" viewBox="0 0 107 32" fill="none" xmlns="http://www.w3.org/2000/svg">
<path fill-rule="evenodd" clip-rule="evenodd" d="M0.795776 15.9998C0.795776 7.34394 7.81306 0.326843 16.4689 0.326843L16.4687 0.327592C25.1255 0.327592 32.1421 7.34451 32.1421 15.9998C32.1421 24.6566 25.1251 31.6733 16.4689 31.6733C7.81306 31.6733 0.795776 24.6566 0.795776 15.9998ZM22.3133 23.2568C22.7735 23.5381 23.375 23.3935 23.6565 22.9317L23.6563 22.9321C23.9389 22.4717 23.793 21.8709 23.3325 21.5883C19.2014 19.0639 14.0802 18.4765 8.1099 19.8414C7.58286 19.9612 7.25477 20.4852 7.37512 21.0109C7.4949 21.5365 8.01894 21.8661 8.54466 21.7455C14.0003 20.4993 18.6328 21.0074 22.3133 23.2568ZM23.894 19.0671C24.4684 19.4203 25.2204 19.2399 25.5749 18.6647L25.5747 18.6649C25.9284 18.0911 25.7469 17.3387 25.1723 16.985C20.3343 14.012 13.2582 13.1754 7.5662 14.9025C6.92107 15.099 6.55667 15.7803 6.75132 16.4265C6.94746 17.0716 7.63002 17.4359 8.27628 17.2407C13.2593 15.728 19.682 16.478 23.894 19.0671ZM7.5312 12.4084C12.3541 10.9447 20.6874 11.2205 25.7396 14.2209H25.7398C26.4341 14.6345 27.3362 14.4048 27.748 13.7082C28.1608 13.0126 27.9323 12.1129 27.2357 11.6995C21.42 8.24698 12.2165 7.92226 6.6802 9.60294C5.90518 9.83838 5.46835 10.6568 5.70305 11.4317C5.93774 12.2061 6.75675 12.6433 7.5312 12.4084ZM80.6293 9.27204C80.6293 8.31211 81.4082 7.53503 82.3681 7.53503H82.3691C83.3273 7.53503 84.1059 8.3123 84.1059 9.27204C84.1059 10.2325 83.3277 11.0105 82.3681 11.0105C81.4084 11.0105 80.6293 10.2325 80.6293 9.27204ZM88.9521 12.0244V12.3592L88.9515 12.3598H93.0915C93.1648 12.3598 93.2311 12.4052 93.2569 12.4739L96.0873 19.8599L98.6714 12.4788C98.6961 12.4079 98.7636 12.3598 98.8392 12.3598H101.362C101.421 12.3598 101.474 12.3888 101.508 12.4369C101.541 12.4853 101.547 12.5471 101.526 12.6018L97.3225 23.4644C96.4508 25.7065 95.4618 26.5399 93.6726 26.5399C92.716 26.5399 91.9421 26.3417 91.0847 25.8774C91.0028 25.8332 90.9693 25.7333 91.0084 25.6481L91.8296 23.8464C91.8493 23.8015 91.8882 23.767 91.9344 23.7507C91.981 23.7363 92.0323 23.7403 92.0756 23.764C92.5352 24.0156 92.9848 24.143 93.4117 24.143C93.9398 24.143 94.3267 23.9693 94.7201 23.0962L91.2545 14.7868H88.9921V23.0977C88.9921 23.1956 88.9124 23.2754 88.8145 23.2754H86.3914C86.2937 23.2754 86.2147 23.1956 86.2147 23.0977V14.7863H85.0506C84.9529 14.7863 84.8728 14.7063 84.8728 14.6086V12.5155C84.8728 12.4178 84.9529 12.3381 85.0506 12.3381H86.2147V11.8252C86.2147 9.44217 87.3977 8.18185 89.6358 8.18185C90.5555 8.18185 91.1697 8.32839 91.6498 8.47119C91.725 8.49421 91.7752 8.56327 91.7752 8.64132V10.6832C91.7752 10.7401 91.7488 10.7938 91.702 10.8273C91.6565 10.8608 91.5981 10.8696 91.5422 10.852C91.0877 10.7004 90.682 10.6001 90.1768 10.6001C89.3298 10.6001 88.9521 11.0394 88.9521 12.0244ZM43.4373 14.7958C40.7312 14.1505 40.2495 13.6976 40.2495 12.7459C40.2495 11.8468 41.096 11.2417 42.3548 11.2417C43.5751 11.2417 44.7851 11.7012 46.0536 12.647C46.092 12.6757 46.1401 12.6871 46.1874 12.6796C46.2348 12.6725 46.2767 12.6465 46.3044 12.6074L47.6258 10.7448C47.68 10.668 47.6652 10.5623 47.5921 10.5037C46.0823 9.29225 44.3821 8.70326 42.3949 8.70326C39.473 8.70326 37.432 10.4567 37.432 12.9656C37.432 15.656 39.1926 16.6086 42.2351 17.344C44.8246 17.9404 45.2616 18.4401 45.2616 19.3334C45.2616 20.3233 44.3778 20.9387 42.9556 20.9387C41.376 20.9387 40.0876 20.4066 38.6463 19.1584C38.6106 19.1276 38.5615 19.1135 38.5162 19.1161C38.4685 19.1201 38.4249 19.1422 38.3946 19.1787L36.913 20.9419C36.8509 21.015 36.8588 21.1244 36.9306 21.1876C38.6076 22.6847 40.67 23.4754 42.8957 23.4754C46.0443 23.4754 48.0789 21.7551 48.0789 19.0924C48.0845 16.8446 46.7388 15.6 43.443 14.7982L43.4373 14.7958ZM55.202 12.1269C53.8373 12.1269 52.7179 12.6645 51.7948 13.7659V12.5262C51.7948 12.4283 51.7155 12.3485 51.6178 12.3485H49.1946C49.0968 12.3485 49.0176 12.4283 49.0176 12.5262V26.3013C49.0176 26.3992 49.0968 26.4789 49.1946 26.4789H51.6178C51.7155 26.4789 51.7948 26.3992 51.7948 26.3013V21.9531C52.7181 22.9892 53.8377 23.4955 55.202 23.4955C57.7378 23.4955 60.3049 21.5434 60.3049 17.8119C60.3086 14.0794 57.7408 12.1268 55.2048 12.1268L55.202 12.1269ZM57.4872 17.8119C57.4872 19.7121 56.3167 21.0381 54.6407 21.0381C52.9838 21.0381 51.734 19.6518 51.734 17.8119C51.734 15.9721 52.9838 14.5856 54.6407 14.5856C56.2896 14.5854 57.4874 15.942 57.4874 17.8117L57.4872 17.8119ZM61.0603 17.8525C61.0603 14.6416 63.6188 12.1269 66.8845 12.1269L66.8843 12.1273C70.1389 12.1273 72.688 14.6244 72.688 17.8119C72.688 21.0104 70.1217 23.5166 66.8444 23.5166C63.6012 23.5166 61.0603 21.0284 61.0603 17.8525ZM63.8379 17.8109C63.8379 19.6614 65.1475 21.057 66.8845 21.057H66.8847C68.6383 21.057 69.911 19.7095 69.911 17.8515C69.911 15.9998 68.5927 14.6042 66.8444 14.6042C65.1022 14.6042 63.8379 15.9526 63.8379 17.8109ZM79.6617 12.3485H76.9953V9.62239C76.9953 9.5247 76.9163 9.44497 76.8184 9.44497H74.3957C74.2976 9.44497 74.218 9.5247 74.218 9.62239V12.3485H73.053C72.9555 12.3485 72.8765 12.4283 72.8765 12.5261V14.6086C72.8765 14.7063 72.9555 14.7863 73.053 14.7863H74.218V20.1747C74.218 22.3523 75.3019 23.4563 77.4394 23.4563C78.3086 23.4563 79.0297 23.2769 79.7093 22.8915C79.7645 22.8606 79.7987 22.8011 79.7987 22.7378V20.7547C79.7987 20.6935 79.7669 20.6357 79.7145 20.6037C79.6617 20.5706 79.596 20.5689 79.5419 20.5956C79.0752 20.8305 78.6239 20.9389 78.1195 20.9389C77.3421 20.9389 76.9953 20.5859 76.9953 19.7948V14.7872H79.6617C79.7596 14.7872 79.8384 14.7075 79.8384 14.6096V12.5273C79.8421 12.4294 79.7635 12.3497 79.6643 12.3497L79.6617 12.3485ZM83.5656 12.3485H81.1425C81.0446 12.3485 80.9649 12.4283 80.9649 12.5262V23.0978C80.9649 23.1956 81.0446 23.2754 81.1425 23.2754H83.5656C83.6633 23.2754 83.7432 23.1956 83.7432 23.0978V12.5269C83.7432 12.429 83.6646 12.3493 83.5654 12.3493L83.5656 12.3485ZM103.595 15.7475C102.637 15.7474 101.89 14.9773 101.89 14.0421C101.89 13.1069 102.646 12.3279 103.605 12.3279C104.564 12.3279 105.31 13.0979 105.31 14.0324C105.31 14.9676 104.554 15.7475 103.595 15.7475ZM103.605 12.4975C102.732 12.4975 102.071 13.1919 102.071 14.0421C102.071 14.892 102.727 15.577 103.596 15.577C104.469 15.577 105.131 14.8832 105.131 14.0324C105.131 13.1825 104.474 12.4975 103.606 12.4975H103.605ZM103.983 14.2078L104.465 14.883H104.059L103.624 14.2635H103.251V14.883H102.911V13.093H103.709C104.125 13.093 104.398 13.3058 104.398 13.6641C104.4 13.9575 104.23 14.1368 103.985 14.2078H103.983ZM103.695 13.4002H103.251V13.9663H103.695C103.916 13.9663 104.049 13.858 104.049 13.683C104.049 13.4988 103.916 13.4002 103.695 13.4002H103.695Z" fill="#1B2733"/>
</svg>
