<svg fill="none" height="16" viewBox="0 0 20 16" width="20" xmlns="http://www.w3.org/2000/svg"><path clip-rule="evenodd" d="m19.2 1.89411c-.7055.32127-1.465.53854-2.2618.63561.8137-.49924 1.438-1.29086 1.7321-2.233873-.7618.462261-1.6036.798553-2.5029.978833-.7168-.784684-1.7412-1.27468-2.8749-1.27468-2.1739 0-3.93761 1.8086-3.93761 4.039 0 .31665.03381.62405.10142.9199-3.27381-.16872-6.17573-1.77508-8.11974-4.221594-.339211.598624-.533048 1.293174-.533048 2.032794 0 1.40065.695338 2.6372 1.752418 3.36179-.64462-.01965-1.25318-.2034-1.7851-.50387v.0497c0 1.95767 1.35799 3.59061 3.16112 3.96042-.3302.09476-.67843.14214-1.03793.14214-.25357 0-.5015-.02427-.74154-.07165.5015 1.60407 1.95528 2.77237 3.67952 2.80357-1.34784 1.084-3.04729 1.7301-4.892126 1.7301-.317803 0-.632224-.0185-.939884-.0555 1.74341 1.1441 3.81476 1.8132 6.03825 1.8132 7.24635 0 11.20765-6.15385 11.20765-11.4918 0-.17566-.0034-.35132-.0102-.52351.7697-.56974 1.438-1.28046 1.9643-2.09058z" fill="#8c97a1" fill-rule="evenodd"/></svg>