<svg fill="none" height="16" viewBox="0 0 23 16" width="23" xmlns="http://www.w3.org/2000/svg"><path clip-rule="evenodd" d="m21.4645 1.19358c.6769.69028.8979 2.25779.8979 2.25779s.2258 1.84121.2258 3.6817v1.72604c0 1.84119-.2258 3.68169-.2258 3.68169s-.221 1.5675-.8979 2.2578c-.774.8166-1.6321.9009-2.1172.9486-.0533.0053-.1022.0101-.1459.0154-3.1609.2303-7.9073.2374-7.9073.2374s-5.87292-.054-7.67998-.2289c-.08562-.0161-.18941-.0287-.30694-.0428-.57241-.0692-1.47082-.1777-2.18412-.9297-.676942-.6903-.897178-2.2578-.897178-2.2578s-.225882-1.8405-.225882-3.68169v-1.72604c0-1.84049.225882-3.6817.225882-3.6817s.220236-1.56751.897178-2.25779c.77567-.817722 1.63464-.90118 2.11975-.948313.05259-.00511.10079-.009793.14401-.014939 3.16094-.230328 7.90238-.230328 7.90238-.230328h.0099s4.7414 0 7.9023.230328c.0432.005154.0915.009843.1441.014962.4847.047137 1.3441.1307 2.119.94829zm-12.50332 3.36536.0007 6.39156 6.10232-3.18474z" fill="#8c97a1" fill-rule="evenodd"/></svg>